M48
; DRILL file {KiCad 9.0.7} date 2026-02-15T15:14:31-0500
; FORMAT={-:-/ absolute / metric / decimal}
; #@! TF.CreationDate,2026-02-15T15:14:31-05:00
; #@! TF.GenerationSoftware,Kicad,Pcbnew,9.0.7
; #@! TF.FileFunction,Plated,1,2,PTH
FMAT,2
METRIC
; #@! TA.AperFunction,Plated,PTH,ViaDrill
T1C0.300
; #@! TA.AperFunction,Plated,PTH,ComponentDrill
T2C0.700
; #@! TA.AperFunction,Plated,PTH,ComponentDrill
T3C0.762
; #@! TA.AperFunction,Plated,PTH,ComponentDrill
T4C0.800
; #@! TA.AperFunction,Plated,PTH,ComponentDrill
T5C0.900
; #@! TA.AperFunction,Plated,PTH,ComponentDrill
T6C1.000
; #@! TA.AperFunction,Plated,PTH,ComponentDrill
T7C1.200
; #@! TA.AperFunction,Plated,PTH,ComponentDrill
T8C1.500
%
G90
G05
T1
X149.5Y-75.0
X154.5Y-75.0
X163.0Y-66.0
X166.0Y-85.0
X166.0Y-86.26
X167.0Y-58.0
X167.0Y-64.0
X168.0Y-66.0
X170.0Y-61.0
X170.0Y-67.56
X170.0Y-85.0
X170.0Y-91.5
X190.0Y-73.5
X191.0Y-50.4
X191.0Y-51.6
X191.5Y-74.0
X192.0Y-71.5
X196.0Y-71.5
T2
X213.0Y-86.5
X213.0Y-91.58
X217.42Y-75.5
X222.5Y-75.5
T3
X172.38Y-51.72
X172.38Y-54.26
X172.38Y-56.8
X172.38Y-59.34
X172.38Y-61.88
X172.38Y-64.42
X172.38Y-66.96
X172.38Y-69.5
X172.5Y-75.5
X172.5Y-78.04
X172.5Y-80.58
X172.5Y-83.12
X172.5Y-85.66
X172.5Y-88.2
X172.5Y-90.74
X172.5Y-93.28
X187.38Y-51.72
X187.38Y-54.26
X187.38Y-56.8
X187.38Y-59.34
X187.38Y-61.88
X187.38Y-64.42
X187.38Y-66.96
X187.38Y-69.5
X187.5Y-75.5
X187.5Y-78.04
X187.5Y-80.58
X187.5Y-83.12
X187.5Y-85.66
X187.5Y-88.2
X187.5Y-90.74
X187.5Y-93.28
X207.434Y-52.5
X207.46Y-68.5
X209.974Y-52.5
X210.0Y-68.5
T4
X206.9Y-75.5
X208.9Y-75.5
X210.9Y-75.5
T5
X213.0Y-80.5
X213.0Y-83.04
T6
X148.26Y-72.0
X150.8Y-72.0
X153.34Y-72.0
X155.88Y-72.0
X158.42Y-72.0
X160.96Y-72.0
X163.5Y-72.0
X166.04Y-72.0
X191.0Y-48.0
X193.54Y-48.0
X196.08Y-48.0
X198.62Y-48.0
X202.96Y-48.0
X205.5Y-48.0
X208.04Y-48.0
X210.58Y-48.0
T7
X197.5Y-62.5
X197.5Y-65.04
X197.5Y-87.0
X197.5Y-89.54
X197.8Y-79.5
X197.8Y-82.04
X198.0Y-54.46
X198.0Y-57.0
T8
X204.8Y-75.5
X213.0Y-75.5
M30
