%TF.GenerationSoftware,KiCad,Pcbnew,9.0.7*%
%TF.CreationDate,2026-02-15T15:14:21-05:00*%
%TF.ProjectId,Training_Robot,54726169-6e69-46e6-975f-526f626f742e,rev?*%
%TF.SameCoordinates,Original*%
%TF.FileFunction,Copper,L2,Bot*%
%TF.FilePolarity,Positive*%
%FSLAX46Y46*%
G04 Gerber Fmt 4.6, Leading zero omitted, Abs format (unit mm)*
G04 Created by KiCad (PCBNEW 9.0.7) date 2026-02-15 15:14:21*
%MOMM*%
%LPD*%
G01*
G04 APERTURE LIST*
G04 Aperture macros list*
%AMRoundRect*
0 Rectangle with rounded corners*
0 $1 Rounding radius*
0 $2 $3 $4 $5 $6 $7 $8 $9 X,Y pos of 4 corners*
0 Add a 4 corners polygon primitive as box body*
4,1,4,$2,$3,$4,$5,$6,$7,$8,$9,$2,$3,0*
0 Add four circle primitives for the rounded corners*
1,1,$1+$1,$2,$3*
1,1,$1+$1,$4,$5*
1,1,$1+$1,$6,$7*
1,1,$1+$1,$8,$9*
0 Add four rect primitives between the rounded corners*
20,1,$1+$1,$2,$3,$4,$5,0*
20,1,$1+$1,$4,$5,$6,$7,0*
20,1,$1+$1,$6,$7,$8,$9,0*
20,1,$1+$1,$8,$9,$2,$3,0*%
G04 Aperture macros list end*
%TA.AperFunction,ComponentPad*%
%ADD10C,1.400000*%
%TD*%
%TA.AperFunction,ComponentPad*%
%ADD11RoundRect,0.250000X-0.750000X0.750000X-0.750000X-0.750000X0.750000X-0.750000X0.750000X0.750000X0*%
%TD*%
%TA.AperFunction,ComponentPad*%
%ADD12C,2.000000*%
%TD*%
%TA.AperFunction,ComponentPad*%
%ADD13R,1.800000X1.800000*%
%TD*%
%TA.AperFunction,ComponentPad*%
%ADD14C,1.800000*%
%TD*%
%TA.AperFunction,ComponentPad*%
%ADD15RoundRect,0.250000X0.750000X-0.750000X0.750000X0.750000X-0.750000X0.750000X-0.750000X-0.750000X0*%
%TD*%
%TA.AperFunction,ComponentPad*%
%ADD16O,2.200000X3.500000*%
%TD*%
%TA.AperFunction,ComponentPad*%
%ADD17R,1.500000X2.500000*%
%TD*%
%TA.AperFunction,ComponentPad*%
%ADD18O,1.500000X2.500000*%
%TD*%
%TA.AperFunction,ComponentPad*%
%ADD19C,1.524000*%
%TD*%
%TA.AperFunction,ComponentPad*%
%ADD20R,1.524000X1.524000*%
%TD*%
%TA.AperFunction,ComponentPad*%
%ADD21R,1.700000X1.700000*%
%TD*%
%TA.AperFunction,ComponentPad*%
%ADD22C,1.700000*%
%TD*%
%TA.AperFunction,ViaPad*%
%ADD23C,0.600000*%
%TD*%
%TA.AperFunction,Conductor*%
%ADD24C,0.200000*%
%TD*%
G04 APERTURE END LIST*
D10*
%TO.P,R1,1*%
%TO.N,Net-(D1-A)*%
X217420000Y-75500000D03*
%TO.P,R1,2*%
%TO.N,/STBY*%
X222500000Y-75500000D03*
%TD*%
%TO.P,R2,1*%
%TO.N,GND*%
X213000000Y-91580000D03*
%TO.P,R2,2*%
%TO.N,Net-(D1-K)*%
X213000000Y-86500000D03*
%TD*%
D11*
%TO.P,M2,1,+*%
%TO.N,/FR+*%
X198000000Y-54460000D03*
D12*
%TO.P,M2,2,-*%
%TO.N,/FR-*%
X198000000Y-57000000D03*
%TD*%
D13*
%TO.P,D1,1,K*%
%TO.N,Net-(D1-K)*%
X213000000Y-83040000D03*
D14*
%TO.P,D1,2,A*%
%TO.N,Net-(D1-A)*%
X213000000Y-80500000D03*
%TD*%
D15*
%TO.P,M4,1,+*%
%TO.N,/BR+*%
X197500000Y-65040000D03*
D12*
%TO.P,M4,2,-*%
%TO.N,/BR-*%
X197500000Y-62500000D03*
%TD*%
D16*
%TO.P,SW1,*%
%TO.N,*%
X213000000Y-75500000D03*
X204800000Y-75500000D03*
D17*
%TO.P,SW1,1,B*%
%TO.N,Net-(D1-A)*%
X210900000Y-75500000D03*
D18*
%TO.P,SW1,2,C*%
%TO.N,+3V3*%
X208900000Y-75500000D03*
%TO.P,SW1,3,A*%
%TO.N,GND*%
X206900000Y-75500000D03*
%TD*%
D19*
%TO.P,U3,1,VCC*%
%TO.N,+12V motor pwr*%
X207434000Y-52500000D03*
D20*
%TO.P,U3,2,VCC*%
X209974000Y-52500000D03*
D19*
%TO.P,U3,3,GND*%
%TO.N,GND*%
X207460000Y-68500000D03*
%TO.P,U3,4,GND*%
X210000000Y-68500000D03*
%TD*%
D21*
%TO.P,J5,1,Pin_1*%
%TO.N,GND*%
X202960000Y-48000000D03*
D22*
%TO.P,J5,2,Pin_2*%
X205500000Y-48000000D03*
%TO.P,J5,3,Pin_3*%
X208040000Y-48000000D03*
%TO.P,J5,4,Pin_4*%
X210580000Y-48000000D03*
%TD*%
D21*
%TO.P,J1,1,Pin_1*%
%TO.N,+3V3*%
X166040000Y-72000000D03*
D22*
%TO.P,J1,2,Pin_2*%
%TO.N,GND*%
X163500000Y-72000000D03*
%TO.P,J1,3,Pin_3*%
%TO.N,Net-(J1-Pin_3)*%
X160960000Y-72000000D03*
%TO.P,J1,4,Pin_4*%
%TO.N,Net-(J1-Pin_4)*%
X158420000Y-72000000D03*
%TO.P,J1,5,Pin_5*%
%TO.N,Net-(J1-Pin_5)*%
X155880000Y-72000000D03*
%TO.P,J1,6,Pin_6*%
%TO.N,Net-(J1-Pin_6)*%
X153340000Y-72000000D03*
%TO.P,J1,7,Pin_7*%
%TO.N,Net-(J1-Pin_7)*%
X150800000Y-72000000D03*
%TO.P,J1,8,Pin_8*%
%TO.N,Net-(J1-Pin_8)*%
X148260000Y-72000000D03*
%TD*%
D15*
%TO.P,M3,1,+*%
%TO.N,/BL+*%
X197500000Y-89540000D03*
D12*
%TO.P,M3,2,-*%
%TO.N,/BL-*%
X197500000Y-87000000D03*
%TD*%
D21*
%TO.P,J4,1,Pin_1*%
%TO.N,+3V3*%
X191000000Y-48000000D03*
D22*
%TO.P,J4,2,Pin_2*%
X193540000Y-48000000D03*
%TO.P,J4,3,Pin_3*%
X196080000Y-48000000D03*
%TO.P,J4,4,Pin_4*%
X198620000Y-48000000D03*
%TD*%
D11*
%TO.P,M1,1,+*%
%TO.N,/FL+*%
X197800000Y-79500000D03*
D12*
%TO.P,M1,2,-*%
%TO.N,/FL-*%
X197800000Y-82040000D03*
%TD*%
D19*
%TO.P,U1,1,PWMA*%
%TO.N,Net-(J1-Pin_3)*%
X172380000Y-51720000D03*
%TO.P,U1,2,AIN2*%
%TO.N,Net-(J1-Pin_5)*%
X172380000Y-54260000D03*
%TO.P,U1,3,AIN1*%
%TO.N,Net-(J1-Pin_4)*%
X172380000Y-56800000D03*
%TO.P,U1,4,STBY*%
%TO.N,/STBY*%
X172380000Y-59340000D03*
%TO.P,U1,5,BIN1*%
%TO.N,Net-(J1-Pin_4)*%
X172380000Y-61880000D03*
%TO.P,U1,6,BIN2*%
%TO.N,Net-(J1-Pin_5)*%
X172380000Y-64420000D03*
%TO.P,U1,7,PWMB*%
%TO.N,Net-(J1-Pin_3)*%
X172380000Y-66960000D03*
%TO.P,U1,8,GND*%
%TO.N,GND*%
X172380000Y-69500000D03*
%TO.P,U1,9,VM*%
%TO.N,+12V motor pwr*%
X187380000Y-51720000D03*
%TO.P,U1,10,VCC*%
%TO.N,+3V3*%
X187380000Y-54260000D03*
%TO.P,U1,11,GND*%
%TO.N,GND*%
X187380000Y-56800000D03*
%TO.P,U1,12,AO1*%
%TO.N,/FR+*%
X187380000Y-59340000D03*
%TO.P,U1,13,AO2*%
%TO.N,/FR-*%
X187380000Y-61880000D03*
%TO.P,U1,14,BO2*%
%TO.N,/BR-*%
X187380000Y-64420000D03*
%TO.P,U1,15,BO1*%
%TO.N,/BR+*%
X187380000Y-66960000D03*
%TO.P,U1,16,GND*%
%TO.N,GND*%
X187380000Y-69500000D03*
%TD*%
%TO.P,U2,1,PWMA*%
%TO.N,Net-(J1-Pin_6)*%
X172500000Y-75500000D03*
%TO.P,U2,2,AIN2*%
%TO.N,Net-(J1-Pin_7)*%
X172500000Y-78040000D03*
%TO.P,U2,3,AIN1*%
%TO.N,Net-(J1-Pin_8)*%
X172500000Y-80580000D03*
%TO.P,U2,4,STBY*%
%TO.N,/STBY*%
X172500000Y-83120000D03*
%TO.P,U2,5,BIN1*%
%TO.N,Net-(J1-Pin_7)*%
X172500000Y-85660000D03*
%TO.P,U2,6,BIN2*%
%TO.N,Net-(J1-Pin_8)*%
X172500000Y-88200000D03*
%TO.P,U2,7,PWMB*%
%TO.N,Net-(J1-Pin_6)*%
X172500000Y-90740000D03*
%TO.P,U2,8,GND*%
%TO.N,GND*%
X172500000Y-93280000D03*
%TO.P,U2,9,VM*%
%TO.N,+12V motor pwr*%
X187500000Y-75500000D03*
%TO.P,U2,10,VCC*%
%TO.N,+3V3*%
X187500000Y-78040000D03*
%TO.P,U2,11,GND*%
%TO.N,GND*%
X187500000Y-80580000D03*
%TO.P,U2,12,AO1*%
%TO.N,/FL+*%
X187500000Y-83120000D03*
%TO.P,U2,13,AO2*%
%TO.N,/FL-*%
X187500000Y-85660000D03*
%TO.P,U2,14,BO2*%
%TO.N,/BL-*%
X187500000Y-88200000D03*
%TO.P,U2,15,BO1*%
%TO.N,/BL+*%
X187500000Y-90740000D03*
%TO.P,U2,16,GND*%
%TO.N,GND*%
X187500000Y-93280000D03*
%TD*%
D23*
%TO.N,Net-(J1-Pin_5)*%
X163000000Y-66000000D03*
X168000000Y-66000000D03*
%TO.N,Net-(J1-Pin_8)*%
X166000000Y-85000000D03*
X166000000Y-86260000D03*
%TO.N,Net-(J1-Pin_3)*%
X167000000Y-58000000D03*
X167000000Y-64000000D03*
%TO.N,Net-(J1-Pin_6)*%
X149500000Y-75000000D03*
X154500000Y-75000000D03*
%TO.N,+3V3*%
X191000000Y-51600000D03*
X191500000Y-74000000D03*
X191000000Y-50400000D03*
X190000000Y-73500000D03*
%TO.N,/STBY*%
X170000000Y-61000000D03*
X170000000Y-91500000D03*
X170000000Y-67560000D03*
X192000000Y-71500000D03*
X196000000Y-71500000D03*
X170000000Y-85000000D03*
%TD*%
D24*
%TO.N,Net-(J1-Pin_5)*%
X163000000Y-66000000D02*
X168000000Y-66000000D01*
%TO.N,Net-(J1-Pin_8)*%
X166000000Y-86260000D02*
X166000000Y-85000000D01*
%TO.N,Net-(J1-Pin_3)*%
X167000000Y-64000000D02*
X167000000Y-58000000D01*
%TO.N,Net-(J1-Pin_6)*%
X154500000Y-75000000D02*
X149500000Y-75000000D01*
%TO.N,+3V3*%
X190500000Y-74000000D02*
X190000000Y-73500000D01*
X191500000Y-74000000D02*
X190500000Y-74000000D01*
X191000000Y-50400000D02*
X191000000Y-51600000D01*
%TO.N,/STBY*%
X170000000Y-67560000D02*
X170000000Y-61000000D01*
X192000000Y-71500000D02*
X196000000Y-71500000D01*
X170000000Y-91500000D02*
X170000000Y-85000000D01*
%TD*%
%TA.AperFunction,Conductor*%
%TO.N,GND*%
G36*
X233442539Y-44020185D02*
G01*
X233488294Y-44072989D01*
X233499500Y-44124500D01*
X233499500Y-97375500D01*
X233479815Y-97442539D01*
X233427011Y-97488294D01*
X233375500Y-97499500D01*
X145124500Y-97499500D01*
X145057461Y-97479815D01*
X145011706Y-97427011D01*
X145000500Y-97375500D01*
X145000500Y-84921153D01*
X165199500Y-84921153D01*
X165199500Y-85078846D01*
X165230261Y-85233489D01*
X165230264Y-85233501D01*
X165290602Y-85379172D01*
X165290609Y-85379185D01*
X165378602Y-85510874D01*
X165384252Y-85528920D01*
X165394477Y-85544830D01*
X165398928Y-85575789D01*
X165399480Y-85577551D01*
X165399500Y-85579765D01*
X165399500Y-85680234D01*
X165379815Y-85747273D01*
X165378602Y-85749125D01*
X165290609Y-85880814D01*
X165290602Y-85880827D01*
X165230264Y-86026498D01*
X165230261Y-86026510D01*
X165199500Y-86181153D01*
X165199500Y-86338846D01*
X165230261Y-86493489D01*
X165230264Y-86493501D01*
X165290602Y-86639172D01*
X165290609Y-86639185D01*
X165378210Y-86770288D01*
X165378213Y-86770292D01*
X165489707Y-86881786D01*
X165489711Y-86881789D01*
X165620814Y-86969390D01*
X165620827Y-86969397D01*
X165714756Y-87008303D01*
X165766503Y-87029737D01*
X165921153Y-87060499D01*
X165921156Y-87060500D01*
X165921158Y-87060500D01*
X166078844Y-87060500D01*
X166078845Y-87060499D01*
X166233497Y-87029737D01*
X166379179Y-86969394D01*
X166510289Y-86881789D01*
X166621789Y-86770289D01*
X166709394Y-86639179D01*
X166769737Y-86493497D01*
X166800500Y-86338842D01*
X166800500Y-86181158D01*
X166800500Y-86181155D01*
X166800499Y-86181153D01*
X166769738Y-86026510D01*
X166769737Y-86026503D01*
X166740383Y-85955636D01*
X166709397Y-85880827D01*
X166709390Y-85880814D01*
X166621398Y-85749125D01*
X166615747Y-85731078D01*
X166605523Y-85715169D01*
X166601071Y-85684207D01*
X166600520Y-85682447D01*
X166600500Y-85680234D01*
X166600500Y-85579765D01*
X166620185Y-85512726D01*
X166621398Y-85510874D01*
X166709390Y-85379185D01*
X166709390Y-85379184D01*
X166709394Y-85379179D01*
X166769737Y-85233497D01*
X166800500Y-85078842D01*
X166800500Y-84921158D01*
X166800500Y-84921155D01*
X166800499Y-84921153D01*
X169199500Y-84921153D01*
X169199500Y-85078846D01*
X169230261Y-85233489D01*
X169230264Y-85233501D01*
X169290602Y-85379172D01*
X169290609Y-85379185D01*
X169378602Y-85510874D01*
X169399480Y-85577551D01*
X169399500Y-85579765D01*
X169399500Y-90920234D01*
X169379815Y-90987273D01*
X169378602Y-90989125D01*
X169290609Y-91120814D01*
X169290602Y-91120827D01*
X169230264Y-91266498D01*
X169230261Y-91266510D01*
X169199500Y-91421153D01*
X169199500Y-91578846D01*
X169230261Y-91733489D01*
X169230264Y-91733501D01*
X169290602Y-91879172D01*
X169290609Y-91879185D01*
X169378210Y-92010288D01*
X169378213Y-92010292D01*
X169489707Y-92121786D01*
X169489711Y-92121789D01*
X169620814Y-92209390D01*
X169620827Y-92209397D01*
X169681017Y-92234328D01*
X169766503Y-92269737D01*
X169921153Y-92300499D01*
X169921156Y-92300500D01*
X169921158Y-92300500D01*
X170078844Y-92300500D01*
X170078845Y-92300499D01*
X170233497Y-92269737D01*
X170379179Y-92209394D01*
X170510289Y-92121789D01*
X170621789Y-92010289D01*
X170709394Y-91879179D01*
X170769737Y-91733497D01*
X170800500Y-91578842D01*
X170800500Y-91421158D01*
X170800500Y-91421155D01*
X170800499Y-91421153D01*
X170797843Y-91407799D01*
X170769737Y-91266503D01*
X170752394Y-91224632D01*
X170709397Y-91120827D01*
X170709390Y-91120814D01*
X170621398Y-90989125D01*
X170600520Y-90922447D01*
X170600500Y-90920234D01*
X170600500Y-85579765D01*
X170620185Y-85512726D01*
X170621398Y-85510874D01*
X170709390Y-85379185D01*
X170709390Y-85379184D01*
X170709394Y-85379179D01*
X170769737Y-85233497D01*
X170800500Y-85078842D01*
X170800500Y-84921158D01*
X170800500Y-84921155D01*
X170800499Y-84921153D01*
X170769738Y-84766510D01*
X170769737Y-84766503D01*
X170740956Y-84697019D01*
X170709397Y-84620827D01*
X170709390Y-84620814D01*
X170621789Y-84489711D01*
X170621786Y-84489707D01*
X170510292Y-84378213D01*
X170510288Y-84378210D01*
X170379185Y-84290609D01*
X170379172Y-84290602D01*
X170233501Y-84230264D01*
X170233489Y-84230261D01*
X170078845Y-84199500D01*
X170078842Y-84199500D01*
X169921158Y-84199500D01*
X169921155Y-84199500D01*
X169766510Y-84230261D01*
X169766498Y-84230264D01*
X169620827Y-84290602D01*
X169620814Y-84290609D01*
X169489711Y-84378210D01*
X169489707Y-84378213D01*
X169378213Y-84489707D01*
X169378210Y-84489711D01*
X169290609Y-84620814D01*
X169290602Y-84620827D01*
X169230264Y-84766498D01*
X169230261Y-84766510D01*
X169199500Y-84921153D01*
X166800499Y-84921153D01*
X166769738Y-84766510D01*
X166769737Y-84766503D01*
X166740956Y-84697019D01*
X166709397Y-84620827D01*
X166709390Y-84620814D01*
X166621789Y-84489711D01*
X166621786Y-84489707D01*
X166510292Y-84378213D01*
X166510288Y-84378210D01*
X166379185Y-84290609D01*
X166379172Y-84290602D01*
X166233501Y-84230264D01*
X166233489Y-84230261D01*
X166078845Y-84199500D01*
X166078842Y-84199500D01*
X165921158Y-84199500D01*
X165921155Y-84199500D01*
X165766510Y-84230261D01*
X165766498Y-84230264D01*
X165620827Y-84290602D01*
X165620814Y-84290609D01*
X165489711Y-84378210D01*
X165489707Y-84378213D01*
X165378213Y-84489707D01*
X165378210Y-84489711D01*
X165290609Y-84620814D01*
X165290602Y-84620827D01*
X165230264Y-84766498D01*
X165230261Y-84766510D01*
X165199500Y-84921153D01*
X145000500Y-84921153D01*
X145000500Y-74921153D01*
X148699500Y-74921153D01*
X148699500Y-75078846D01*
X148730261Y-75233489D01*
X148730264Y-75233501D01*
X148790602Y-75379172D01*
X148790609Y-75379185D01*
X148878210Y-75510288D01*
X148878213Y-75510292D01*
X148989707Y-75621786D01*
X148989711Y-75621789D01*
X149120814Y-75709390D01*
X149120827Y-75709397D01*
X149208245Y-75745606D01*
X149266503Y-75769737D01*
X149421153Y-75800499D01*
X149421156Y-75800500D01*
X149421158Y-75800500D01*
X149578844Y-75800500D01*
X149578845Y-75800499D01*
X149733497Y-75769737D01*
X149879179Y-75709394D01*
X149879185Y-75709390D01*
X150010875Y-75621398D01*
X150077553Y-75600520D01*
X150079766Y-75600500D01*
X153920234Y-75600500D01*
X153987273Y-75620185D01*
X153989125Y-75621398D01*
X154120814Y-75709390D01*
X154120827Y-75709397D01*
X154208245Y-75745606D01*
X154266503Y-75769737D01*
X154421153Y-75800499D01*
X154421156Y-75800500D01*
X154421158Y-75800500D01*
X154578844Y-75800500D01*
X154578845Y-75800499D01*
X154733497Y-75769737D01*
X154879179Y-75709394D01*
X155010289Y-75621789D01*
X155121789Y-75510289D01*
X155195055Y-75400639D01*
X171237500Y-75400639D01*
X171237500Y-75599361D01*
X171237684Y-75600520D01*
X171268587Y-75795637D01*
X171329993Y-75984629D01*
X171329994Y-75984632D01*
X171403656Y-76129199D01*
X171420213Y-76161694D01*
X171537019Y-76322464D01*
X171677536Y-76462981D01*
X171838306Y-76579787D01*
X171902597Y-76612545D01*
X171994780Y-76659515D01*
X172045576Y-76707490D01*
X172062371Y-76775311D01*
X172039833Y-76841446D01*
X171994780Y-76880485D01*
X171838305Y-76960213D01*
X171677533Y-77077021D01*
X171537021Y-77217533D01*
X171420213Y-77378305D01*
X171329994Y-77555367D01*
X171329993Y-77555370D01*
X171268587Y-77744362D01*
X171237500Y-77940639D01*
X171237500Y-78139360D01*
X171268587Y-78335637D01*
X171329993Y-78524629D01*
X171329994Y-78524632D01*
X171419340Y-78699981D01*
X171420213Y-78701694D01*
X171537019Y-78862464D01*
X171677536Y-79002981D01*
X171838306Y-79119787D01*
X171956832Y-79180179D01*
X171994780Y-79199515D01*
X172045576Y-79247490D01*
X172062371Y-79315311D01*
X172039833Y-79381446D01*
X171994780Y-79420485D01*
X171838305Y-79500213D01*
X171677533Y-79617021D01*
X171537021Y-79757533D01*
X171420213Y-79918305D01*
X171329994Y-80095367D01*
X171329993Y-80095370D01*
X171268587Y-80284362D01*
X171237500Y-80480639D01*
X171237500Y-80679360D01*
X171268587Y-80875637D01*
X171329993Y-81064629D01*
X171329994Y-81064632D01*
X171416304Y-81234022D01*
X171420213Y-81241694D01*
X171537019Y-81402464D01*
X171677536Y-81542981D01*
X171838306Y-81659787D01*
X171909776Y-81696203D01*
X171994780Y-81739515D01*
X172045576Y-81787490D01*
X172062371Y-81855311D01*
X172039833Y-81921446D01*
X171994780Y-81960485D01*
X171838305Y-82040213D01*
X171677533Y-82157021D01*
X171537021Y-82297533D01*
X171420213Y-82458305D01*
X171329994Y-82635367D01*
X171329993Y-82635370D01*
X171268587Y-82824362D01*
X171237500Y-83020639D01*
X171237500Y-83219360D01*
X171268587Y-83415637D01*
X171329993Y-83604629D01*
X171329994Y-83604632D01*
X171420213Y-83781694D01*
X171537019Y-83942464D01*
X171677536Y-84082981D01*
X171838306Y-84199787D01*
X171956832Y-84260179D01*
X171994780Y-84279515D01*
X172045576Y-84327490D01*
X172062371Y-84395311D01*
X172039833Y-84461446D01*
X171994780Y-84500485D01*
X171838305Y-84580213D01*
X171677533Y-84697021D01*
X171537021Y-84837533D01*
X171420213Y-84998305D01*
X171329994Y-85175367D01*
X171329993Y-85175370D01*
X171268587Y-85364362D01*
X171237500Y-85560639D01*
X171237500Y-85759360D01*
X171268587Y-85955637D01*
X171329993Y-86144629D01*
X171329994Y-86144632D01*
X171367827Y-86218882D01*
X171420213Y-86321694D01*
X171537019Y-86482464D01*
X171677536Y-86622981D01*
X171838306Y-86739787D01*
X171956832Y-86800179D01*
X171994780Y-86819515D01*
X172045576Y-86867490D01*
X172062371Y-86935311D01*
X172039833Y-87001446D01*
X171994780Y-87040485D01*
X171838305Y-87120213D01*
X171677533Y-87237021D01*
X171537021Y-87377533D01*
X171420213Y-87538305D01*
X171329994Y-87715367D01*
X171329993Y-87715370D01*
X171268587Y-87904362D01*
X171256212Y-87982494D01*
X171237500Y-88100639D01*
X171237500Y-88299361D01*
X171240982Y-88321344D01*
X171268587Y-88495637D01*
X171329993Y-88684629D01*
X171329994Y-88684632D01*
X171420213Y-88861694D01*
X171537019Y-89022464D01*
X171677536Y-89162981D01*
X171838306Y-89279787D01*
X171956832Y-89340179D01*
X171994780Y-89359515D01*
X172045576Y-89407490D01*
X172062371Y-89475311D01*
X172039833Y-89541446D01*
X171994780Y-89580485D01*
X171838305Y-89660213D01*
X171677533Y-89777021D01*
X171537021Y-89917533D01*
X171420213Y-90078305D01*
X171329994Y-90255367D01*
X171329993Y-90255370D01*
X171268587Y-90444362D01*
X171237500Y-90640639D01*
X171237500Y-90839360D01*
X171268587Y-91035637D01*
X171329993Y-91224629D01*
X171329994Y-91224632D01*
X171368361Y-91299930D01*
X171420213Y-91401694D01*
X171537019Y-91562464D01*
X171677536Y-91702981D01*
X171838306Y-91819787D01*
X171995332Y-91899796D01*
X172046127Y-91947769D01*
X172062922Y-92015590D01*
X172040385Y-92081725D01*
X171995332Y-92120764D01*
X171838566Y-92200641D01*
X171801283Y-92227729D01*
X171801282Y-92227730D01*
X172472554Y-92899000D01*
X172449840Y-92899000D01*
X172352939Y-92924964D01*
X172266060Y-92975124D01*
X172195124Y-93046060D01*
X172144964Y-93132939D01*
X172119000Y-93229840D01*
X172119000Y-93252552D01*
X171447730Y-92581282D01*
X171447729Y-92581283D01*
X171420643Y-92618564D01*
X171330457Y-92795562D01*
X171269075Y-92984476D01*
X171269075Y-92984479D01*
X171238000Y-93180678D01*
X171238000Y-93379321D01*
X171269075Y-93575520D01*
X171269075Y-93575523D01*
X171330457Y-93764437D01*
X171420641Y-93941432D01*
X171447730Y-93978715D01*
X171447731Y-93978716D01*
X172119000Y-93307447D01*
X172119000Y-93330160D01*
X172144964Y-93427061D01*
X172195124Y-93513940D01*
X172266060Y-93584876D01*
X172352939Y-93635036D01*
X172449840Y-93661000D01*
X172472553Y-93661000D01*
X171801283Y-94332268D01*
X171801283Y-94332269D01*
X171838567Y-94359358D01*
X172015562Y-94449542D01*
X172204477Y-94510924D01*
X172400679Y-94542000D01*
X172599321Y-94542000D01*
X172795520Y-94510924D01*
X172795523Y-94510924D01*
X172984437Y-94449542D01*
X173161425Y-94359362D01*
X173198716Y-94332268D01*
X172527448Y-93661000D01*
X172550160Y-93661000D01*
X172647061Y-93635036D01*
X172733940Y-93584876D01*
X172804876Y-93513940D01*
X172855036Y-93427061D01*
X172881000Y-93330160D01*
X172881000Y-93307447D01*
X173552268Y-93978715D01*
X173579362Y-93941425D01*
X173669542Y-93764437D01*
X173730924Y-93575523D01*
X173730924Y-93575520D01*
X173762000Y-93379321D01*
X173762000Y-93180678D01*
X173730924Y-92984479D01*
X173730924Y-92984476D01*
X173669542Y-92795562D01*
X173579358Y-92618567D01*
X173552268Y-92581283D01*
X172881000Y-93252551D01*
X172881000Y-93229840D01*
X172855036Y-93132939D01*
X172804876Y-93046060D01*
X172733940Y-92975124D01*
X172647061Y-92924964D01*
X172550160Y-92899000D01*
X172527447Y-92899000D01*
X173198716Y-92227731D01*
X173198715Y-92227730D01*
X173161432Y-92200641D01*
X173004668Y-92120765D01*
X172953872Y-92072790D01*
X172937077Y-92004969D01*
X172959615Y-91938834D01*
X173004667Y-91899796D01*
X173161694Y-91819787D01*
X173322464Y-91702981D01*
X173462981Y-91562464D01*
X173579787Y-91401694D01*
X173670005Y-91224632D01*
X173731413Y-91035636D01*
X173762500Y-90839361D01*
X173762500Y-90640639D01*
X173731413Y-90444364D01*
X173670005Y-90255368D01*
X173670005Y-90255367D01*
X173579786Y-90078305D01*
X173462981Y-89917536D01*
X173322464Y-89777019D01*
X173161694Y-89660213D01*
X173005218Y-89580484D01*
X172954423Y-89532510D01*
X172937628Y-89464689D01*
X172960165Y-89398554D01*
X173005218Y-89359515D01*
X173161694Y-89279787D01*
X173322464Y-89162981D01*
X173462981Y-89022464D01*
X173579787Y-88861694D01*
X173670005Y-88684632D01*
X173731413Y-88495636D01*
X173762500Y-88299361D01*
X173762500Y-88100639D01*
X173731413Y-87904364D01*
X173670005Y-87715368D01*
X173670005Y-87715367D01*
X173579786Y-87538305D01*
X173571398Y-87526760D01*
X173462981Y-87377536D01*
X173322464Y-87237019D01*
X173161694Y-87120213D01*
X173005218Y-87040484D01*
X172954423Y-86992510D01*
X172937628Y-86924689D01*
X172960165Y-86858554D01*
X173005218Y-86819515D01*
X173161694Y-86739787D01*
X173322464Y-86622981D01*
X173462981Y-86482464D01*
X173579787Y-86321694D01*
X173670005Y-86144632D01*
X173731413Y-85955636D01*
X173762500Y-85759361D01*
X173762500Y-85560639D01*
X173731413Y-85364364D01*
X173700709Y-85269866D01*
X173670006Y-85175370D01*
X173670005Y-85175367D01*
X173579786Y-84998305D01*
X173462981Y-84837536D01*
X173322464Y-84697019D01*
X173161694Y-84580213D01*
X173005218Y-84500484D01*
X172954423Y-84452510D01*
X172937628Y-84384689D01*
X172960165Y-84318554D01*
X173005218Y-84279515D01*
X173161694Y-84199787D01*
X173322464Y-84082981D01*
X173462981Y-83942464D01*
X173579787Y-83781694D01*
X173670005Y-83604632D01*
X173731413Y-83415636D01*
X173762500Y-83219361D01*
X173762500Y-83020639D01*
X173731413Y-82824364D01*
X173670005Y-82635368D01*
X173670005Y-82635367D01*
X173579786Y-82458305D01*
X173462981Y-82297536D01*
X173322464Y-82157019D01*
X173161694Y-82040213D01*
X173005218Y-81960484D01*
X172954423Y-81912510D01*
X172937628Y-81844689D01*
X172960165Y-81778554D01*
X173005218Y-81739515D01*
X173161694Y-81659787D01*
X173322464Y-81542981D01*
X173462981Y-81402464D01*
X173579787Y-81241694D01*
X173670005Y-81064632D01*
X173731413Y-80875636D01*
X173762500Y-80679361D01*
X173762500Y-80480639D01*
X173731413Y-80284364D01*
X173670005Y-80095368D01*
X173670005Y-80095367D01*
X173602251Y-79962394D01*
X173579787Y-79918306D01*
X173462981Y-79757536D01*
X173322464Y-79617019D01*
X173161694Y-79500213D01*
X173005218Y-79420484D01*
X172954423Y-79372510D01*
X172937628Y-79304689D01*
X172960165Y-79238554D01*
X173005218Y-79199515D01*
X173161694Y-79119787D01*
X173322464Y-79002981D01*
X173462981Y-78862464D01*
X173579787Y-78701694D01*
X173670005Y-78524632D01*
X173731413Y-78335636D01*
X173762500Y-78139361D01*
X173762500Y-77940639D01*
X173731413Y-77744364D01*
X173670005Y-77555368D01*
X173670005Y-77555367D01*
X173579786Y-77378305D01*
X173574328Y-77370793D01*
X173462981Y-77217536D01*
X173322464Y-77077019D01*
X173161694Y-76960213D01*
X173005218Y-76880484D01*
X172954423Y-76832510D01*
X172937628Y-76764689D01*
X172960165Y-76698554D01*
X173005218Y-76659515D01*
X173161694Y-76579787D01*
X173322464Y-76462981D01*
X173462981Y-76322464D01*
X173579787Y-76161694D01*
X173670005Y-75984632D01*
X173731413Y-75795636D01*
X173762500Y-75599361D01*
X173762500Y-75400639D01*
X186237500Y-75400639D01*
X186237500Y-75599361D01*
X186237684Y-75600520D01*
X186268587Y-75795637D01*
X186329993Y-75984629D01*
X186329994Y-75984632D01*
X186403656Y-76129199D01*
X186420213Y-76161694D01*
X186537019Y-76322464D01*
X186677536Y-76462981D01*
X186838306Y-76579787D01*
X186902597Y-76612545D01*
X186994780Y-76659515D01*
X187045576Y-76707490D01*
X187062371Y-76775311D01*
X187039833Y-76841446D01*
X186994780Y-76880485D01*
X186838305Y-76960213D01*
X186677533Y-77077021D01*
X186537021Y-77217533D01*
X186420213Y-77378305D01*
X186329994Y-77555367D01*
X186329993Y-77555370D01*
X186268587Y-77744362D01*
X186237500Y-77940639D01*
X186237500Y-78139360D01*
X186268587Y-78335637D01*
X186329993Y-78524629D01*
X186329994Y-78524632D01*
X186419340Y-78699981D01*
X186420213Y-78701694D01*
X186537019Y-78862464D01*
X186677536Y-79002981D01*
X186838306Y-79119787D01*
X186995332Y-79199796D01*
X187046127Y-79247769D01*
X187062922Y-79315590D01*
X187040385Y-79381725D01*
X186995332Y-79420764D01*
X186838566Y-79500641D01*
X186801283Y-79527729D01*
X186801282Y-79527730D01*
X187472554Y-80199000D01*
X187449840Y-80199000D01*
X187352939Y-80224964D01*
X187266060Y-80275124D01*
X187195124Y-80346060D01*
X187144964Y-80432939D01*
X187119000Y-80529840D01*
X187119000Y-80552552D01*
X186447730Y-79881282D01*
X186447729Y-79881283D01*
X186420643Y-79918564D01*
X186330457Y-80095562D01*
X186269075Y-80284476D01*
X186269075Y-80284479D01*
X186238000Y-80480678D01*
X186238000Y-80679321D01*
X186269075Y-80875520D01*
X186269075Y-80875523D01*
X186330457Y-81064437D01*
X186420641Y-81241432D01*
X186447730Y-81278715D01*
X186447731Y-81278716D01*
X187119000Y-80607447D01*
X187119000Y-80630160D01*
X187144964Y-80727061D01*
X187195124Y-80813940D01*
X187266060Y-80884876D01*
X187352939Y-80935036D01*
X187449840Y-80961000D01*
X187472553Y-80961000D01*
X186801283Y-81632268D01*
X186801283Y-81632269D01*
X186838567Y-81659358D01*
X186995331Y-81739234D01*
X187046127Y-81787209D01*
X187062922Y-81855030D01*
X187040384Y-81921165D01*
X186995331Y-81960204D01*
X186838305Y-82040213D01*
X186677533Y-82157021D01*
X186537021Y-82297533D01*
X186420213Y-82458305D01*
X186329994Y-82635367D01*
X186329993Y-82635370D01*
X186268587Y-82824362D01*
X186237500Y-83020639D01*
X186237500Y-83219360D01*
X186268587Y-83415637D01*
X186329993Y-83604629D01*
X186329994Y-83604632D01*
X186420213Y-83781694D01*
X186537019Y-83942464D01*
X186677536Y-84082981D01*
X186838306Y-84199787D01*
X186956832Y-84260179D01*
X186994780Y-84279515D01*
X187045576Y-84327490D01*
X187062371Y-84395311D01*
X187039833Y-84461446D01*
X186994780Y-84500485D01*
X186838305Y-84580213D01*
X186677533Y-84697021D01*
X186537021Y-84837533D01*
X186420213Y-84998305D01*
X186329994Y-85175367D01*
X186329993Y-85175370D01*
X186268587Y-85364362D01*
X186237500Y-85560639D01*
X186237500Y-85759360D01*
X186268587Y-85955637D01*
X186329993Y-86144629D01*
X186329994Y-86144632D01*
X186367827Y-86218882D01*
X186420213Y-86321694D01*
X186537019Y-86482464D01*
X186677536Y-86622981D01*
X186838306Y-86739787D01*
X186956832Y-86800179D01*
X186994780Y-86819515D01*
X187045576Y-86867490D01*
X187062371Y-86935311D01*
X187039833Y-87001446D01*
X186994780Y-87040485D01*
X186838305Y-87120213D01*
X186677533Y-87237021D01*
X186537021Y-87377533D01*
X186420213Y-87538305D01*
X186329994Y-87715367D01*
X186329993Y-87715370D01*
X186268587Y-87904362D01*
X186256212Y-87982494D01*
X186237500Y-88100639D01*
X186237500Y-88299361D01*
X186240982Y-88321344D01*
X186268587Y-88495637D01*
X186329993Y-88684629D01*
X186329994Y-88684632D01*
X186420213Y-88861694D01*
X186537019Y-89022464D01*
X186677536Y-89162981D01*
X186838306Y-89279787D01*
X186956832Y-89340179D01*
X186994780Y-89359515D01*
X187045576Y-89407490D01*
X187062371Y-89475311D01*
X187039833Y-89541446D01*
X186994780Y-89580485D01*
X186838305Y-89660213D01*
X186677533Y-89777021D01*
X186537021Y-89917533D01*
X186420213Y-90078305D01*
X186329994Y-90255367D01*
X186329993Y-90255370D01*
X186268587Y-90444362D01*
X186237500Y-90640639D01*
X186237500Y-90839360D01*
X186268587Y-91035637D01*
X186329993Y-91224629D01*
X186329994Y-91224632D01*
X186368361Y-91299930D01*
X186420213Y-91401694D01*
X186537019Y-91562464D01*
X186677536Y-91702981D01*
X186838306Y-91819787D01*
X186995332Y-91899796D01*
X187046127Y-91947769D01*
X187062922Y-92015590D01*
X187040385Y-92081725D01*
X186995332Y-92120764D01*
X186838566Y-92200641D01*
X186801283Y-92227729D01*
X186801282Y-92227730D01*
X187472554Y-92899000D01*
X187449840Y-92899000D01*
X187352939Y-92924964D01*
X187266060Y-92975124D01*
X187195124Y-93046060D01*
X187144964Y-93132939D01*
X187119000Y-93229840D01*
X187119000Y-93252552D01*
X186447730Y-92581282D01*
X186447729Y-92581283D01*
X186420643Y-92618564D01*
X186330457Y-92795562D01*
X186269075Y-92984476D01*
X186269075Y-92984479D01*
X186238000Y-93180678D01*
X186238000Y-93379321D01*
X186269075Y-93575520D01*
X186269075Y-93575523D01*
X186330457Y-93764437D01*
X186420641Y-93941432D01*
X186447730Y-93978715D01*
X186447731Y-93978716D01*
X187119000Y-93307447D01*
X187119000Y-93330160D01*
X187144964Y-93427061D01*
X187195124Y-93513940D01*
X187266060Y-93584876D01*
X187352939Y-93635036D01*
X187449840Y-93661000D01*
X187472553Y-93661000D01*
X186801283Y-94332268D01*
X186801283Y-94332269D01*
X186838567Y-94359358D01*
X187015562Y-94449542D01*
X187204477Y-94510924D01*
X187400679Y-94542000D01*
X187599321Y-94542000D01*
X187795520Y-94510924D01*
X187795523Y-94510924D01*
X187984437Y-94449542D01*
X188161425Y-94359362D01*
X188198716Y-94332268D01*
X187527448Y-93661000D01*
X187550160Y-93661000D01*
X187647061Y-93635036D01*
X187733940Y-93584876D01*
X187804876Y-93513940D01*
X187855036Y-93427061D01*
X187881000Y-93330160D01*
X187881000Y-93307447D01*
X188552268Y-93978715D01*
X188579362Y-93941425D01*
X188669542Y-93764437D01*
X188730924Y-93575523D01*
X188730924Y-93575520D01*
X188762000Y-93379321D01*
X188762000Y-93180678D01*
X188730924Y-92984479D01*
X188730924Y-92984476D01*
X188669542Y-92795562D01*
X188579357Y-92618565D01*
X188579356Y-92618563D01*
X188575686Y-92613512D01*
X188575684Y-92613510D01*
X188557063Y-92587882D01*
X212345669Y-92587882D01*
X212345670Y-92587883D01*
X212371059Y-92606329D01*
X212539362Y-92692085D01*
X212718997Y-92750451D01*
X212905553Y-92780000D01*
X213094447Y-92780000D01*
X213281002Y-92750451D01*
X213460637Y-92692085D01*
X213628937Y-92606331D01*
X213654328Y-92587883D01*
X213654328Y-92587882D01*
X213000001Y-91933554D01*
X213000000Y-91933554D01*
X212345669Y-92587882D01*
X188557063Y-92587882D01*
X188552268Y-92581283D01*
X187881000Y-93252551D01*
X187881000Y-93229840D01*
X187855036Y-93132939D01*
X187804876Y-93046060D01*
X187733940Y-92975124D01*
X187647061Y-92924964D01*
X187550160Y-92899000D01*
X187527447Y-92899000D01*
X188198716Y-92227731D01*
X188198715Y-92227730D01*
X188161432Y-92200641D01*
X188004668Y-92120765D01*
X187953872Y-92072790D01*
X187937077Y-92004969D01*
X187959615Y-91938834D01*
X188004667Y-91899796D01*
X188161694Y-91819787D01*
X188322464Y-91702981D01*
X188462981Y-91562464D01*
X188518861Y-91485552D01*
X211800000Y-91485552D01*
X211800000Y-91674447D01*
X211829548Y-91861002D01*
X211887914Y-92040637D01*
X211973666Y-92208933D01*
X211992116Y-92234328D01*
X212646446Y-91580000D01*
X212646446Y-91579999D01*
X212600369Y-91533922D01*
X212650000Y-91533922D01*
X212650000Y-91626078D01*
X212673852Y-91715095D01*
X212719930Y-91794905D01*
X212785095Y-91860070D01*
X212864905Y-91906148D01*
X212953922Y-91930000D01*
X213046078Y-91930000D01*
X213135095Y-91906148D01*
X213214905Y-91860070D01*
X213280070Y-91794905D01*
X213326148Y-91715095D01*
X213350000Y-91626078D01*
X213350000Y-91579999D01*
X213353554Y-91579999D01*
X213353554Y-91580000D01*
X214007882Y-92234328D01*
X214007883Y-92234328D01*
X214026331Y-92208937D01*
X214112085Y-92040637D01*
X214170451Y-91861002D01*
X214200000Y-91674447D01*
X214200000Y-91485552D01*
X214170451Y-91298997D01*
X214112085Y-91119362D01*
X214026329Y-90951059D01*
X214007883Y-90925670D01*
X214007882Y-90925669D01*
X213353554Y-91579999D01*
X213350000Y-91579999D01*
X213350000Y-91533922D01*
X213326148Y-91444905D01*
X213280070Y-91365095D01*
X213214905Y-91299930D01*
X213135095Y-91253852D01*
X213046078Y-91230000D01*
X212953922Y-91230000D01*
X212864905Y-91253852D01*
X212785095Y-91299930D01*
X212719930Y-91365095D01*
X212673852Y-91444905D01*
X212650000Y-91533922D01*
X212600369Y-91533922D01*
X211992116Y-90925669D01*
X211992116Y-90925670D01*
X211973669Y-90951060D01*
X211887914Y-91119362D01*
X211829548Y-91298997D01*
X211800000Y-91485552D01*
X188518861Y-91485552D01*
X188579787Y-91401694D01*
X188670005Y-91224632D01*
X188731413Y-91035636D01*
X188762500Y-90839361D01*
X188762500Y-90640639D01*
X188731413Y-90444364D01*
X188670005Y-90255368D01*
X188670005Y-90255367D01*
X188579786Y-90078305D01*
X188462981Y-89917536D01*
X188322464Y-89777019D01*
X188161694Y-89660213D01*
X188005218Y-89580484D01*
X187954423Y-89532510D01*
X187937628Y-89464689D01*
X187960165Y-89398554D01*
X188005218Y-89359515D01*
X188161694Y-89279787D01*
X188322464Y-89162981D01*
X188462981Y-89022464D01*
X188579787Y-88861694D01*
X188670005Y-88684632D01*
X188731413Y-88495636D01*
X188762500Y-88299361D01*
X188762500Y-88100639D01*
X188731413Y-87904364D01*
X188670005Y-87715368D01*
X188670005Y-87715367D01*
X188579786Y-87538305D01*
X188571398Y-87526760D01*
X188462981Y-87377536D01*
X188322464Y-87237019D01*
X188161694Y-87120213D01*
X188005218Y-87040484D01*
X187996065Y-87031840D01*
X187984399Y-87027105D01*
X187971144Y-87008303D01*
X187954423Y-86992510D01*
X187951396Y-86980289D01*
X187944142Y-86969998D01*
X187943156Y-86947015D01*
X187937628Y-86924689D01*
X187941689Y-86912771D01*
X187941150Y-86900192D01*
X187951826Y-86881902D01*
X195999500Y-86881902D01*
X195999500Y-87118097D01*
X196036446Y-87351368D01*
X196109433Y-87575996D01*
X196216657Y-87786433D01*
X196355483Y-87977510D01*
X196355489Y-87977516D01*
X196358647Y-87981214D01*
X196356864Y-87982736D01*
X196385726Y-88035591D01*
X196380742Y-88105283D01*
X196338870Y-88161216D01*
X196329658Y-88167487D01*
X196281344Y-88197287D01*
X196157289Y-88321342D01*
X196065187Y-88470663D01*
X196065186Y-88470666D01*
X196010001Y-88637203D01*
X196010001Y-88637204D01*
X196010000Y-88637204D01*
X195999500Y-88739983D01*
X195999500Y-90340001D01*
X195999501Y-90340018D01*
X196010000Y-90442796D01*
X196010001Y-90442799D01*
X196065185Y-90609331D01*
X196065186Y-90609334D01*
X196157288Y-90758656D01*
X196281344Y-90882712D01*
X196430666Y-90974814D01*
X196597203Y-91029999D01*
X196699991Y-91040500D01*
X198300008Y-91040499D01*
X198402797Y-91029999D01*
X198569334Y-90974814D01*
X198718656Y-90882712D01*
X198842712Y-90758656D01*
X198934814Y-90609334D01*
X198947147Y-90572116D01*
X212345669Y-90572116D01*
X213000000Y-91226446D01*
X213000001Y-91226446D01*
X213654328Y-90572116D01*
X213628933Y-90553666D01*
X213460637Y-90467914D01*
X213281002Y-90409548D01*
X213094447Y-90380000D01*
X212905553Y-90380000D01*
X212718997Y-90409548D01*
X212539362Y-90467914D01*
X212371060Y-90553669D01*
X212345670Y-90572116D01*
X212345669Y-90572116D01*
X198947147Y-90572116D01*
X198989999Y-90442797D01*
X199000500Y-90340009D01*
X199000499Y-88739992D01*
X198989999Y-88637203D01*
X198934814Y-88470666D01*
X198842712Y-88321344D01*
X198718656Y-88197288D01*
X198718655Y-88197287D01*
X198670342Y-88167487D01*
X198623618Y-88115539D01*
X198612397Y-88046576D01*
X198640241Y-87982494D01*
X198641381Y-87981249D01*
X198641348Y-87981221D01*
X198644511Y-87977516D01*
X198644511Y-87977515D01*
X198644517Y-87977510D01*
X198783343Y-87786433D01*
X198890568Y-87575992D01*
X198963553Y-87351368D01*
X198981664Y-87237019D01*
X199000500Y-87118097D01*
X199000500Y-86881902D01*
X198977990Y-86739786D01*
X198963553Y-86648632D01*
X198963552Y-86648628D01*
X198963552Y-86648627D01*
X198895428Y-86438965D01*
X198895427Y-86438964D01*
X198890568Y-86424008D01*
X198881144Y-86405513D01*
X211799500Y-86405513D01*
X211799500Y-86594486D01*
X211829059Y-86781118D01*
X211887454Y-86960836D01*
X211938236Y-87060500D01*
X211973240Y-87129199D01*
X212084310Y-87282073D01*
X212217927Y-87415690D01*
X212370801Y-87526760D01*
X212450347Y-87567290D01*
X212539163Y-87612545D01*
X212539165Y-87612545D01*
X212539168Y-87612547D01*
X212635497Y-87643846D01*
X212718881Y-87670940D01*
X212905514Y-87700500D01*
X212905519Y-87700500D01*
X213094486Y-87700500D01*
X213281118Y-87670940D01*
X213460832Y-87612547D01*
X213629199Y-87526760D01*
X213782073Y-87415690D01*
X213915690Y-87282073D01*
X214026760Y-87129199D01*
X214112547Y-86960832D01*
X214170940Y-86781118D01*
X214177486Y-86739786D01*
X214200500Y-86594486D01*
X214200500Y-86405513D01*
X214170940Y-86218881D01*
X214112545Y-86039163D01*
X214031865Y-85880821D01*
X214026760Y-85870801D01*
X213915690Y-85717927D01*
X213782073Y-85584310D01*
X213629199Y-85473240D01*
X213460836Y-85387454D01*
X213281118Y-85329059D01*
X213094486Y-85299500D01*
X213094481Y-85299500D01*
X212905519Y-85299500D01*
X212905514Y-85299500D01*
X212718881Y-85329059D01*
X212539163Y-85387454D01*
X212370800Y-85473240D01*
X212319002Y-85510874D01*
X212217927Y-85584310D01*
X212217925Y-85584312D01*
X212217924Y-85584312D01*
X212084312Y-85717924D01*
X212084312Y-85717925D01*
X212084310Y-85717927D01*
X212054207Y-85759360D01*
X211973240Y-85870800D01*
X211887454Y-86039163D01*
X211829059Y-86218881D01*
X211799500Y-86405513D01*
X198881144Y-86405513D01*
X198783343Y-86213567D01*
X198644517Y-86022490D01*
X198477510Y-85855483D01*
X198286433Y-85716657D01*
X198283513Y-85715169D01*
X198075996Y-85609433D01*
X197851368Y-85536446D01*
X197618097Y-85499500D01*
X197618092Y-85499500D01*
X197381908Y-85499500D01*
X197381903Y-85499500D01*
X197148631Y-85536446D01*
X196924003Y-85609433D01*
X196713566Y-85716657D01*
X196654790Y-85759361D01*
X196522490Y-85855483D01*
X196522488Y-85855485D01*
X196522487Y-85855485D01*
X196355485Y-86022487D01*
X196355485Y-86022488D01*
X196355483Y-86022490D01*
X196343366Y-86039168D01*
X196216657Y-86213566D01*
X196109433Y-86424003D01*
X196036446Y-86648631D01*
X195999500Y-86881902D01*
X187951826Y-86881902D01*
X187952745Y-86880327D01*
X187960165Y-86858554D01*
X187970868Y-86849279D01*
X187976372Y-86839851D01*
X188005217Y-86819516D01*
X188161694Y-86739787D01*
X188322464Y-86622981D01*
X188462981Y-86482464D01*
X188579787Y-86321694D01*
X188670005Y-86144632D01*
X188731413Y-85955636D01*
X188762500Y-85759361D01*
X188762500Y-85560639D01*
X188731413Y-85364364D01*
X188700709Y-85269866D01*
X188670006Y-85175370D01*
X188670005Y-85175367D01*
X188579786Y-84998305D01*
X188462981Y-84837536D01*
X188322464Y-84697019D01*
X188161694Y-84580213D01*
X188005218Y-84500484D01*
X187954423Y-84452510D01*
X187937628Y-84384689D01*
X187960165Y-84318554D01*
X188005218Y-84279515D01*
X188161694Y-84199787D01*
X188322464Y-84082981D01*
X188462981Y-83942464D01*
X188579787Y-83781694D01*
X188670005Y-83604632D01*
X188731413Y-83415636D01*
X188762500Y-83219361D01*
X188762500Y-83020639D01*
X188731413Y-82824364D01*
X188670005Y-82635368D01*
X188670005Y-82635367D01*
X188579786Y-82458305D01*
X188462981Y-82297536D01*
X188322464Y-82157019D01*
X188161694Y-82040213D01*
X188004667Y-81960203D01*
X187953872Y-81912229D01*
X187937077Y-81844408D01*
X187959614Y-81778273D01*
X188004669Y-81739234D01*
X188161422Y-81659364D01*
X188198716Y-81632268D01*
X187527448Y-80961000D01*
X187550160Y-80961000D01*
X187647061Y-80935036D01*
X187733940Y-80884876D01*
X187804876Y-80813940D01*
X187855036Y-80727061D01*
X187881000Y-80630160D01*
X187881000Y-80607447D01*
X188552268Y-81278715D01*
X188579362Y-81241425D01*
X188669542Y-81064437D01*
X188730924Y-80875523D01*
X188730924Y-80875520D01*
X188762000Y-80679321D01*
X188762000Y-80480678D01*
X188730924Y-80284479D01*
X188730924Y-80284476D01*
X188669542Y-80095562D01*
X188579358Y-79918567D01*
X188552268Y-79881283D01*
X187881000Y-80552551D01*
X187881000Y-80529840D01*
X187855036Y-80432939D01*
X187804876Y-80346060D01*
X187733940Y-80275124D01*
X187647061Y-80224964D01*
X187550160Y-80199000D01*
X187527447Y-80199000D01*
X188198716Y-79527731D01*
X188198715Y-79527730D01*
X188161432Y-79500641D01*
X188004668Y-79420765D01*
X187953872Y-79372790D01*
X187937077Y-79304969D01*
X187959615Y-79238834D01*
X188004667Y-79199796D01*
X188161694Y-79119787D01*
X188322464Y-79002981D01*
X188462981Y-78862464D01*
X188579787Y-78701694D01*
X188580659Y-78699983D01*
X196299500Y-78699983D01*
X196299500Y-80300001D01*
X196299501Y-80300018D01*
X196310000Y-80402796D01*
X196310001Y-80402799D01*
X196319989Y-80432939D01*
X196365186Y-80569334D01*
X196457288Y-80718656D01*
X196581344Y-80842712D01*
X196623102Y-80868468D01*
X196629656Y-80872511D01*
X196676381Y-80924459D01*
X196687604Y-80993421D01*
X196659760Y-81057504D01*
X196658615Y-81058759D01*
X196658647Y-81058786D01*
X196655485Y-81062487D01*
X196655483Y-81062490D01*
X196653929Y-81064629D01*
X196516657Y-81253566D01*
X196409433Y-81464003D01*
X196336446Y-81688631D01*
X196299500Y-81921902D01*
X196299500Y-82158097D01*
X196336446Y-82391368D01*
X196409433Y-82615996D01*
X196515602Y-82824362D01*
X196516657Y-82826433D01*
X196655483Y-83017510D01*
X196822490Y-83184517D01*
X197013567Y-83323343D01*
X197112991Y-83374002D01*
X197224003Y-83430566D01*
X197224005Y-83430566D01*
X197224008Y-83430568D01*
X197344412Y-83469689D01*
X197448631Y-83503553D01*
X197681903Y-83540500D01*
X197681908Y-83540500D01*
X197918097Y-83540500D01*
X198151368Y-83503553D01*
X198375992Y-83430568D01*
X198586433Y-83323343D01*
X198777510Y-83184517D01*
X198944517Y-83017510D01*
X199083343Y-82826433D01*
X199190568Y-82615992D01*
X199263553Y-82391368D01*
X199300500Y-82158097D01*
X199300500Y-81921902D01*
X199263553Y-81688631D01*
X199216227Y-81542978D01*
X199190568Y-81464008D01*
X199190566Y-81464005D01*
X199190566Y-81464003D01*
X199096157Y-81278716D01*
X199083343Y-81253567D01*
X198944517Y-81062490D01*
X198944508Y-81062481D01*
X198941353Y-81058786D01*
X198943134Y-81057264D01*
X198914273Y-81004408D01*
X198919257Y-80934716D01*
X198961129Y-80878783D01*
X198970334Y-80872516D01*
X199018656Y-80842712D01*
X199142712Y-80718656D01*
X199234814Y-80569334D01*
X199289999Y-80402797D01*
X199291329Y-80389778D01*
X211599500Y-80389778D01*
X211599500Y-80610221D01*
X211633985Y-80827952D01*
X211702103Y-81037603D01*
X211702104Y-81037606D01*
X211802187Y-81234025D01*
X211931752Y-81412358D01*
X211931756Y-81412363D01*
X211981928Y-81462535D01*
X212015413Y-81523858D01*
X212010429Y-81593550D01*
X211968557Y-81649483D01*
X211937581Y-81666398D01*
X211857669Y-81696203D01*
X211857664Y-81696206D01*
X211742455Y-81782452D01*
X211742452Y-81782455D01*
X211656206Y-81897664D01*
X211656202Y-81897671D01*
X211605908Y-82032517D01*
X211599501Y-82092116D01*
X211599501Y-82092123D01*
X211599500Y-82092135D01*
X211599500Y-83987870D01*
X211599501Y-83987876D01*
X211605908Y-84047483D01*
X211656202Y-84182328D01*
X211656206Y-84182335D01*
X211742452Y-84297544D01*
X211742455Y-84297547D01*
X211857664Y-84383793D01*
X211857671Y-84383797D01*
X211992517Y-84434091D01*
X211992516Y-84434091D01*
X211999444Y-84434835D01*
X212052127Y-84440500D01*
X213947872Y-84440499D01*
X214007483Y-84434091D01*
X214142331Y-84383796D01*
X214257546Y-84297546D01*
X214343796Y-84182331D01*
X214394091Y-84047483D01*
X214400500Y-83987873D01*
X214400499Y-82092128D01*
X214394091Y-82032517D01*
X214363312Y-81949995D01*
X214343797Y-81897671D01*
X214343793Y-81897664D01*
X214257547Y-81782455D01*
X214257544Y-81782452D01*
X214142335Y-81696206D01*
X214142328Y-81696202D01*
X214062419Y-81666398D01*
X214006485Y-81624527D01*
X213982068Y-81559062D01*
X213996920Y-81490789D01*
X214018069Y-81462537D01*
X214068242Y-81412365D01*
X214197815Y-81234022D01*
X214297895Y-81037606D01*
X214366015Y-80827951D01*
X214400500Y-80610222D01*
X214400500Y-80389778D01*
X214366015Y-80172049D01*
X214297895Y-79962394D01*
X214297895Y-79962393D01*
X214256566Y-79881282D01*
X214197815Y-79765978D01*
X214181260Y-79743192D01*
X214068247Y-79587641D01*
X214068243Y-79587636D01*
X213912363Y-79431756D01*
X213912358Y-79431752D01*
X213734025Y-79302187D01*
X213734024Y-79302186D01*
X213734022Y-79302185D01*
X213627226Y-79247769D01*
X213537606Y-79202104D01*
X213537603Y-79202103D01*
X213327952Y-79133985D01*
X213219086Y-79116742D01*
X213110222Y-79099500D01*
X212889778Y-79099500D01*
X212817201Y-79110995D01*
X212672047Y-79133985D01*
X212462396Y-79202103D01*
X212462393Y-79202104D01*
X212265974Y-79302187D01*
X212087641Y-79431752D01*
X212087636Y-79431756D01*
X211931756Y-79587636D01*
X211931752Y-79587641D01*
X211802187Y-79765974D01*
X211702104Y-79962393D01*
X211702103Y-79962396D01*
X211633985Y-80172047D01*
X211599500Y-80389778D01*
X199291329Y-80389778D01*
X199300500Y-80300009D01*
X199300499Y-78699992D01*
X199289999Y-78597203D01*
X199234814Y-78430666D01*
X199142712Y-78281344D01*
X199018656Y-78157288D01*
X198869334Y-78065186D01*
X198702797Y-78010001D01*
X198702795Y-78010000D01*
X198600010Y-77999500D01*
X196999998Y-77999500D01*
X196999981Y-77999501D01*
X196897203Y-78010000D01*
X196897200Y-78010001D01*
X196730668Y-78065185D01*
X196730663Y-78065187D01*
X196581342Y-78157289D01*
X196457289Y-78281342D01*
X196365187Y-78430663D01*
X196365186Y-78430666D01*
X196310001Y-78597203D01*
X196310001Y-78597204D01*
X196310000Y-78597204D01*
X196299500Y-78699983D01*
X188580659Y-78699983D01*
X188670005Y-78524632D01*
X188731413Y-78335636D01*
X188762500Y-78139361D01*
X188762500Y-77940639D01*
X188731413Y-77744364D01*
X188670005Y-77555368D01*
X188670005Y-77555367D01*
X188579786Y-77378305D01*
X188574328Y-77370793D01*
X188462981Y-77217536D01*
X188322464Y-77077019D01*
X188161694Y-76960213D01*
X188005218Y-76880484D01*
X187954423Y-76832510D01*
X187937628Y-76764689D01*
X187960165Y-76698554D01*
X188005218Y-76659515D01*
X188161694Y-76579787D01*
X188322464Y-76462981D01*
X188462981Y-76322464D01*
X188579787Y-76161694D01*
X188670005Y-75984632D01*
X188731413Y-75795636D01*
X188762500Y-75599361D01*
X188762500Y-75400639D01*
X188731413Y-75204364D01*
X188690630Y-75078846D01*
X188670006Y-75015370D01*
X188670005Y-75015367D01*
X188596344Y-74870801D01*
X188579787Y-74838306D01*
X188462981Y-74677536D01*
X188322464Y-74537019D01*
X188161694Y-74420213D01*
X188121043Y-74399500D01*
X187984632Y-74329994D01*
X187984629Y-74329993D01*
X187795637Y-74268587D01*
X187697498Y-74253043D01*
X187599361Y-74237500D01*
X187400639Y-74237500D01*
X187335214Y-74247862D01*
X187204362Y-74268587D01*
X187015370Y-74329993D01*
X187015367Y-74329994D01*
X186838305Y-74420213D01*
X186677533Y-74537021D01*
X186537021Y-74677533D01*
X186420213Y-74838305D01*
X186329994Y-75015367D01*
X186329993Y-75015370D01*
X186268587Y-75204362D01*
X186263974Y-75233489D01*
X186237500Y-75400639D01*
X173762500Y-75400639D01*
X173731413Y-75204364D01*
X173690630Y-75078846D01*
X173670006Y-75015370D01*
X173670005Y-75015367D01*
X173596344Y-74870801D01*
X173579787Y-74838306D01*
X173462981Y-74677536D01*
X173322464Y-74537019D01*
X173161694Y-74420213D01*
X173121043Y-74399500D01*
X172984632Y-74329994D01*
X172984629Y-74329993D01*
X172795637Y-74268587D01*
X172697498Y-74253043D01*
X172599361Y-74237500D01*
X172400639Y-74237500D01*
X172335214Y-74247862D01*
X172204362Y-74268587D01*
X172015370Y-74329993D01*
X172015367Y-74329994D01*
X171838305Y-74420213D01*
X171677533Y-74537021D01*
X171537021Y-74677533D01*
X171420213Y-74838305D01*
X171329994Y-75015367D01*
X171329993Y-75015370D01*
X171268587Y-75204362D01*
X171263974Y-75233489D01*
X171237500Y-75400639D01*
X155195055Y-75400639D01*
X155209394Y-75379179D01*
X155269737Y-75233497D01*
X155300500Y-75078842D01*
X155300500Y-74921158D01*
X155300500Y-74921155D01*
X155300499Y-74921153D01*
X155290483Y-74870800D01*
X155269737Y-74766503D01*
X155252148Y-74724038D01*
X155209397Y-74620827D01*
X155209390Y-74620814D01*
X155121789Y-74489711D01*
X155121786Y-74489707D01*
X155010292Y-74378213D01*
X155010288Y-74378210D01*
X154879185Y-74290609D01*
X154879172Y-74290602D01*
X154733501Y-74230264D01*
X154733489Y-74230261D01*
X154578845Y-74199500D01*
X154578842Y-74199500D01*
X154421158Y-74199500D01*
X154421155Y-74199500D01*
X154266510Y-74230261D01*
X154266498Y-74230264D01*
X154120827Y-74290602D01*
X154120814Y-74290609D01*
X153989125Y-74378602D01*
X153922447Y-74399480D01*
X153920234Y-74399500D01*
X150079766Y-74399500D01*
X150012727Y-74379815D01*
X150010875Y-74378602D01*
X149879185Y-74290609D01*
X149879172Y-74290602D01*
X149733501Y-74230264D01*
X149733489Y-74230261D01*
X149578845Y-74199500D01*
X149578842Y-74199500D01*
X149421158Y-74199500D01*
X149421155Y-74199500D01*
X149266510Y-74230261D01*
X149266498Y-74230264D01*
X149120827Y-74290602D01*
X149120814Y-74290609D01*
X148989711Y-74378210D01*
X148989707Y-74378213D01*
X148878213Y-74489707D01*
X148878210Y-74489711D01*
X148790609Y-74620814D01*
X148790602Y-74620827D01*
X148730264Y-74766498D01*
X148730261Y-74766510D01*
X148699500Y-74921153D01*
X145000500Y-74921153D01*
X145000500Y-73421153D01*
X189199500Y-73421153D01*
X189199500Y-73578846D01*
X189230261Y-73733489D01*
X189230264Y-73733501D01*
X189290602Y-73879172D01*
X189290609Y-73879185D01*
X189378210Y-74010288D01*
X189378213Y-74010292D01*
X189489707Y-74121786D01*
X189489711Y-74121789D01*
X189620814Y-74209390D01*
X189620827Y-74209397D01*
X189766498Y-74269735D01*
X189766503Y-74269737D01*
X189921158Y-74300500D01*
X189921847Y-74300637D01*
X189983758Y-74333022D01*
X189985337Y-74334573D01*
X190131284Y-74480520D01*
X190131286Y-74480521D01*
X190131290Y-74480524D01*
X190268209Y-74559573D01*
X190268216Y-74559577D01*
X190420943Y-74600501D01*
X190420945Y-74600501D01*
X190586654Y-74600501D01*
X190586670Y-74600500D01*
X190920234Y-74600500D01*
X190987273Y-74620185D01*
X190989125Y-74621398D01*
X191120814Y-74709390D01*
X191120827Y-74709397D01*
X191258683Y-74766498D01*
X191266503Y-74769737D01*
X191421153Y-74800499D01*
X191421156Y-74800500D01*
X191421158Y-74800500D01*
X191578844Y-74800500D01*
X191578845Y-74800499D01*
X191733497Y-74769737D01*
X191843825Y-74724038D01*
X203199500Y-74724038D01*
X203199500Y-76275962D01*
X203221631Y-76415690D01*
X203238910Y-76524785D01*
X203316760Y-76764383D01*
X203370573Y-76869995D01*
X203416541Y-76960213D01*
X203431132Y-76988848D01*
X203579201Y-77192649D01*
X203579205Y-77192654D01*
X203757345Y-77370794D01*
X203757350Y-77370798D01*
X203935117Y-77499952D01*
X203961155Y-77518870D01*
X204104184Y-77591747D01*
X204185616Y-77633239D01*
X204185618Y-77633239D01*
X204185621Y-77633241D01*
X204425215Y-77711090D01*
X204674038Y-77750500D01*
X204674039Y-77750500D01*
X204925961Y-77750500D01*
X204925962Y-77750500D01*
X205174785Y-77711090D01*
X205414379Y-77633241D01*
X205638845Y-77518870D01*
X205842656Y-77370793D01*
X206020793Y-77192656D01*
X206084598Y-77104835D01*
X206139924Y-77062172D01*
X206209537Y-77056191D01*
X206241209Y-77067237D01*
X206420162Y-77158418D01*
X206607283Y-77219218D01*
X206650000Y-77225984D01*
X206650000Y-75815686D01*
X206654394Y-75820080D01*
X206745606Y-75872741D01*
X206847339Y-75900000D01*
X206952661Y-75900000D01*
X207054394Y-75872741D01*
X207145606Y-75820080D01*
X207150000Y-75815686D01*
X207150000Y-77225983D01*
X207192716Y-77219218D01*
X207379837Y-77158418D01*
X207555143Y-77069095D01*
X207714321Y-76953444D01*
X207714322Y-76953443D01*
X207811965Y-76855801D01*
X207873288Y-76822316D01*
X207942980Y-76827300D01*
X207987327Y-76855801D01*
X208085354Y-76953828D01*
X208244595Y-77069524D01*
X208313903Y-77104838D01*
X208419970Y-77158882D01*
X208419972Y-77158882D01*
X208419975Y-77158884D01*
X208520317Y-77191487D01*
X208607173Y-77219709D01*
X208801578Y-77250500D01*
X208801583Y-77250500D01*
X208998422Y-77250500D01*
X209192826Y-77219709D01*
X209272574Y-77193797D01*
X209380025Y-77158884D01*
X209555405Y-77069524D01*
X209591614Y-77043215D01*
X209657417Y-77019736D01*
X209725471Y-77035560D01*
X209763763Y-77069220D01*
X209792454Y-77107546D01*
X209792455Y-77107546D01*
X209792456Y-77107548D01*
X209907664Y-77193793D01*
X209907671Y-77193797D01*
X210042517Y-77244091D01*
X210042516Y-77244091D01*
X210049444Y-77244835D01*
X210102127Y-77250500D01*
X211697872Y-77250499D01*
X211757483Y-77244091D01*
X211757486Y-77244089D01*
X211764554Y-77243330D01*
X211833314Y-77255736D01*
X211865490Y-77278939D01*
X211957345Y-77370794D01*
X211957350Y-77370798D01*
X212135117Y-77499952D01*
X212161155Y-77518870D01*
X212304184Y-77591747D01*
X212385616Y-77633239D01*
X212385618Y-77633239D01*
X212385621Y-77633241D01*
X212625215Y-77711090D01*
X212874038Y-77750500D01*
X212874039Y-77750500D01*
X213125961Y-77750500D01*
X213125962Y-77750500D01*
X213374785Y-77711090D01*
X213614379Y-77633241D01*
X213838845Y-77518870D01*
X214042656Y-77370793D01*
X214220793Y-77192656D01*
X214368870Y-76988845D01*
X214483241Y-76764379D01*
X214561090Y-76524785D01*
X214600500Y-76275962D01*
X214600500Y-75405513D01*
X216219500Y-75405513D01*
X216219500Y-75594486D01*
X216249059Y-75781118D01*
X216307454Y-75960836D01*
X216377556Y-76098417D01*
X216393240Y-76129199D01*
X216504310Y-76282073D01*
X216637927Y-76415690D01*
X216790801Y-76526760D01*
X216870347Y-76567290D01*
X216959163Y-76612545D01*
X216959165Y-76612545D01*
X216959168Y-76612547D01*
X217055497Y-76643846D01*
X217138881Y-76670940D01*
X217325514Y-76700500D01*
X217325519Y-76700500D01*
X217514486Y-76700500D01*
X217701118Y-76670940D01*
X217736280Y-76659515D01*
X217880832Y-76612547D01*
X218049199Y-76526760D01*
X218202073Y-76415690D01*
X218335690Y-76282073D01*
X218446760Y-76129199D01*
X218532547Y-75960832D01*
X218590940Y-75781118D01*
X218592743Y-75769735D01*
X218620500Y-75594486D01*
X218620500Y-75405513D01*
X221299500Y-75405513D01*
X221299500Y-75594486D01*
X221329059Y-75781118D01*
X221387454Y-75960836D01*
X221457556Y-76098417D01*
X221473240Y-76129199D01*
X221584310Y-76282073D01*
X221717927Y-76415690D01*
X221870801Y-76526760D01*
X221950347Y-76567290D01*
X222039163Y-76612545D01*
X222039165Y-76612545D01*
X222039168Y-76612547D01*
X222135497Y-76643846D01*
X222218881Y-76670940D01*
X222405514Y-76700500D01*
X222405519Y-76700500D01*
X222594486Y-76700500D01*
X222781118Y-76670940D01*
X222816280Y-76659515D01*
X222960832Y-76612547D01*
X223129199Y-76526760D01*
X223282073Y-76415690D01*
X223415690Y-76282073D01*
X223526760Y-76129199D01*
X223612547Y-75960832D01*
X223670940Y-75781118D01*
X223672743Y-75769735D01*
X223700500Y-75594486D01*
X223700500Y-75405513D01*
X223670940Y-75218881D01*
X223625439Y-75078846D01*
X223612547Y-75039168D01*
X223612545Y-75039165D01*
X223612545Y-75039163D01*
X223552418Y-74921158D01*
X223526760Y-74870801D01*
X223415690Y-74717927D01*
X223282073Y-74584310D01*
X223129199Y-74473240D01*
X222960836Y-74387454D01*
X222781118Y-74329059D01*
X222594486Y-74299500D01*
X222594481Y-74299500D01*
X222405519Y-74299500D01*
X222405514Y-74299500D01*
X222218881Y-74329059D01*
X222039163Y-74387454D01*
X221870800Y-74473240D01*
X221806476Y-74519975D01*
X221717927Y-74584310D01*
X221717925Y-74584312D01*
X221717924Y-74584312D01*
X221584312Y-74717924D01*
X221584312Y-74717925D01*
X221584310Y-74717927D01*
X221549021Y-74766498D01*
X221473240Y-74870800D01*
X221387454Y-75039163D01*
X221329059Y-75218881D01*
X221299500Y-75405513D01*
X218620500Y-75405513D01*
X218590940Y-75218881D01*
X218545439Y-75078846D01*
X218532547Y-75039168D01*
X218532545Y-75039165D01*
X218532545Y-75039163D01*
X218472418Y-74921158D01*
X218446760Y-74870801D01*
X218335690Y-74717927D01*
X218202073Y-74584310D01*
X218049199Y-74473240D01*
X217880836Y-74387454D01*
X217701118Y-74329059D01*
X217514486Y-74299500D01*
X217514481Y-74299500D01*
X217325519Y-74299500D01*
X217325514Y-74299500D01*
X217138881Y-74329059D01*
X216959163Y-74387454D01*
X216790800Y-74473240D01*
X216726476Y-74519975D01*
X216637927Y-74584310D01*
X216637925Y-74584312D01*
X216637924Y-74584312D01*
X216504312Y-74717924D01*
X216504312Y-74717925D01*
X216504310Y-74717927D01*
X216469021Y-74766498D01*
X216393240Y-74870800D01*
X216307454Y-75039163D01*
X216249059Y-75218881D01*
X216219500Y-75405513D01*
X214600500Y-75405513D01*
X214600500Y-74724038D01*
X214561090Y-74475215D01*
X214483241Y-74235621D01*
X214483239Y-74235618D01*
X214483239Y-74235616D01*
X214403358Y-74078842D01*
X214368870Y-74011155D01*
X214311914Y-73932762D01*
X214220798Y-73807350D01*
X214220794Y-73807345D01*
X214042654Y-73629205D01*
X214042649Y-73629201D01*
X213838848Y-73481132D01*
X213838847Y-73481131D01*
X213838845Y-73481130D01*
X213768747Y-73445413D01*
X213614383Y-73366760D01*
X213374785Y-73288910D01*
X213233358Y-73266510D01*
X213125962Y-73249500D01*
X212874038Y-73249500D01*
X212766718Y-73266498D01*
X212625214Y-73288910D01*
X212385616Y-73366760D01*
X212161151Y-73481132D01*
X211957350Y-73629200D01*
X211865487Y-73721062D01*
X211804163Y-73754546D01*
X211764553Y-73756669D01*
X211755522Y-73755698D01*
X211697873Y-73749500D01*
X211697865Y-73749500D01*
X210102129Y-73749500D01*
X210102123Y-73749501D01*
X210042516Y-73755908D01*
X209907671Y-73806202D01*
X209907664Y-73806206D01*
X209792455Y-73892452D01*
X209763765Y-73930777D01*
X209707830Y-73972648D01*
X209638139Y-73977631D01*
X209591613Y-73956783D01*
X209555405Y-73930476D01*
X209380029Y-73841117D01*
X209192826Y-73780290D01*
X208998422Y-73749500D01*
X208998417Y-73749500D01*
X208801583Y-73749500D01*
X208801578Y-73749500D01*
X208607173Y-73780290D01*
X208419970Y-73841117D01*
X208244594Y-73930476D01*
X208179692Y-73977631D01*
X208085354Y-74046172D01*
X208085352Y-74046174D01*
X208085350Y-74046175D01*
X207987325Y-74144199D01*
X207926002Y-74177683D01*
X207856310Y-74172698D01*
X207811964Y-74144198D01*
X207714321Y-74046555D01*
X207555143Y-73930904D01*
X207379835Y-73841581D01*
X207192705Y-73780778D01*
X207150000Y-73774014D01*
X207150000Y-75184314D01*
X207145606Y-75179920D01*
X207054394Y-75127259D01*
X206952661Y-75100000D01*
X206847339Y-75100000D01*
X206745606Y-75127259D01*
X206654394Y-75179920D01*
X206650000Y-75184314D01*
X206650000Y-73774014D01*
X206649999Y-73774014D01*
X206607294Y-73780778D01*
X206420161Y-73841582D01*
X206241209Y-73932762D01*
X206172540Y-73945658D01*
X206107800Y-73919381D01*
X206084597Y-73895162D01*
X206020798Y-73807350D01*
X206020794Y-73807345D01*
X205842654Y-73629205D01*
X205842649Y-73629201D01*
X205638848Y-73481132D01*
X205638847Y-73481131D01*
X205638845Y-73481130D01*
X205568747Y-73445413D01*
X205414383Y-73366760D01*
X205174785Y-73288910D01*
X205033358Y-73266510D01*
X204925962Y-73249500D01*
X204674038Y-73249500D01*
X204566718Y-73266498D01*
X204425214Y-73288910D01*
X204185616Y-73366760D01*
X203961151Y-73481132D01*
X203757350Y-73629201D01*
X203757345Y-73629205D01*
X203579205Y-73807345D01*
X203579201Y-73807350D01*
X203431132Y-74011151D01*
X203316760Y-74235616D01*
X203238910Y-74475214D01*
X203238910Y-74475215D01*
X203199500Y-74724038D01*
X191843825Y-74724038D01*
X191879179Y-74709394D01*
X192010289Y-74621789D01*
X192121789Y-74510289D01*
X192209394Y-74379179D01*
X192269737Y-74233497D01*
X192300500Y-74078842D01*
X192300500Y-73921158D01*
X192300500Y-73921155D01*
X192300499Y-73921153D01*
X192284579Y-73841117D01*
X192269737Y-73766503D01*
X192265349Y-73755909D01*
X192209397Y-73620827D01*
X192209390Y-73620814D01*
X192121789Y-73489711D01*
X192121786Y-73489707D01*
X192010292Y-73378213D01*
X192010288Y-73378210D01*
X191879185Y-73290609D01*
X191879172Y-73290602D01*
X191733501Y-73230264D01*
X191733489Y-73230261D01*
X191578845Y-73199500D01*
X191578842Y-73199500D01*
X191421158Y-73199500D01*
X191421155Y-73199500D01*
X191266510Y-73230261D01*
X191266498Y-73230264D01*
X191120827Y-73290602D01*
X191120814Y-73290609D01*
X190989125Y-73378602D01*
X190971078Y-73384252D01*
X190955169Y-73394477D01*
X190924207Y-73398928D01*
X190922447Y-73399480D01*
X190920234Y-73399500D01*
X190897956Y-73399500D01*
X190830917Y-73379815D01*
X190785162Y-73327011D01*
X190776339Y-73299691D01*
X190769738Y-73266510D01*
X190769737Y-73266503D01*
X190762694Y-73249500D01*
X190709397Y-73120827D01*
X190709390Y-73120814D01*
X190621789Y-72989711D01*
X190621786Y-72989707D01*
X190510292Y-72878213D01*
X190510288Y-72878210D01*
X190379185Y-72790609D01*
X190379172Y-72790602D01*
X190233501Y-72730264D01*
X190233489Y-72730261D01*
X190078845Y-72699500D01*
X190078842Y-72699500D01*
X189921158Y-72699500D01*
X189921155Y-72699500D01*
X189766510Y-72730261D01*
X189766498Y-72730264D01*
X189620827Y-72790602D01*
X189620814Y-72790609D01*
X189489711Y-72878210D01*
X189489707Y-72878213D01*
X189378213Y-72989707D01*
X189378210Y-72989711D01*
X189290609Y-73120814D01*
X189290602Y-73120827D01*
X189230264Y-73266498D01*
X189230261Y-73266510D01*
X189199500Y-73421153D01*
X145000500Y-73421153D01*
X145000500Y-71893713D01*
X146909500Y-71893713D01*
X146909500Y-72106286D01*
X146942753Y-72316239D01*
X147008444Y-72518414D01*
X147104951Y-72707820D01*
X147229890Y-72879786D01*
X147380213Y-73030109D01*
X147552179Y-73155048D01*
X147552181Y-73155049D01*
X147552184Y-73155051D01*
X147741588Y-73251557D01*
X147943757Y-73317246D01*
X148153713Y-73350500D01*
X148153714Y-73350500D01*
X148366286Y-73350500D01*
X148366287Y-73350500D01*
X148576243Y-73317246D01*
X148778412Y-73251557D01*
X148967816Y-73155051D01*
X149054138Y-73092335D01*
X149139786Y-73030109D01*
X149139788Y-73030106D01*
X149139792Y-73030104D01*
X149290104Y-72879792D01*
X149290106Y-72879788D01*
X149290109Y-72879786D01*
X149415048Y-72707820D01*
X149415047Y-72707820D01*
X149415051Y-72707816D01*
X149419514Y-72699054D01*
X149467488Y-72648259D01*
X149535308Y-72631463D01*
X149601444Y-72653999D01*
X149640486Y-72699056D01*
X149644951Y-72707820D01*
X149769890Y-72879786D01*
X149920213Y-73030109D01*
X150092179Y-73155048D01*
X150092181Y-73155049D01*
X150092184Y-73155051D01*
X150281588Y-73251557D01*
X150483757Y-73317246D01*
X150693713Y-73350500D01*
X150693714Y-73350500D01*
X150906286Y-73350500D01*
X150906287Y-73350500D01*
X151116243Y-73317246D01*
X151318412Y-73251557D01*
X151507816Y-73155051D01*
X151594138Y-73092335D01*
X151679786Y-73030109D01*
X151679788Y-73030106D01*
X151679792Y-73030104D01*
X151830104Y-72879792D01*
X151830106Y-72879788D01*
X151830109Y-72879786D01*
X151955048Y-72707820D01*
X151955047Y-72707820D01*
X151955051Y-72707816D01*
X151959514Y-72699054D01*
X152007488Y-72648259D01*
X152075308Y-72631463D01*
X152141444Y-72653999D01*
X152180486Y-72699056D01*
X152184951Y-72707820D01*
X152309890Y-72879786D01*
X152460213Y-73030109D01*
X152632179Y-73155048D01*
X152632181Y-73155049D01*
X152632184Y-73155051D01*
X152821588Y-73251557D01*
X153023757Y-73317246D01*
X153233713Y-73350500D01*
X153233714Y-73350500D01*
X153446286Y-73350500D01*
X153446287Y-73350500D01*
X153656243Y-73317246D01*
X153858412Y-73251557D01*
X154047816Y-73155051D01*
X154134138Y-73092335D01*
X154219786Y-73030109D01*
X154219788Y-73030106D01*
X154219792Y-73030104D01*
X154370104Y-72879792D01*
X154370106Y-72879788D01*
X154370109Y-72879786D01*
X154495048Y-72707820D01*
X154495047Y-72707820D01*
X154495051Y-72707816D01*
X154499514Y-72699054D01*
X154547488Y-72648259D01*
X154615308Y-72631463D01*
X154681444Y-72653999D01*
X154720486Y-72699056D01*
X154724951Y-72707820D01*
X154849890Y-72879786D01*
X155000213Y-73030109D01*
X155172179Y-73155048D01*
X155172181Y-73155049D01*
X155172184Y-73155051D01*
X155361588Y-73251557D01*
X155563757Y-73317246D01*
X155773713Y-73350500D01*
X155773714Y-73350500D01*
X155986286Y-73350500D01*
X155986287Y-73350500D01*
X156196243Y-73317246D01*
X156398412Y-73251557D01*
X156587816Y-73155051D01*
X156674138Y-73092335D01*
X156759786Y-73030109D01*
X156759788Y-73030106D01*
X156759792Y-73030104D01*
X156910104Y-72879792D01*
X156910106Y-72879788D01*
X156910109Y-72879786D01*
X157035048Y-72707820D01*
X157035047Y-72707820D01*
X157035051Y-72707816D01*
X157039514Y-72699054D01*
X157087488Y-72648259D01*
X157155308Y-72631463D01*
X157221444Y-72653999D01*
X157260486Y-72699056D01*
X157264951Y-72707820D01*
X157389890Y-72879786D01*
X157540213Y-73030109D01*
X157712179Y-73155048D01*
X157712181Y-73155049D01*
X157712184Y-73155051D01*
X157901588Y-73251557D01*
X158103757Y-73317246D01*
X158313713Y-73350500D01*
X158313714Y-73350500D01*
X158526286Y-73350500D01*
X158526287Y-73350500D01*
X158736243Y-73317246D01*
X158938412Y-73251557D01*
X159127816Y-73155051D01*
X159214138Y-73092335D01*
X159299786Y-73030109D01*
X159299788Y-73030106D01*
X159299792Y-73030104D01*
X159450104Y-72879792D01*
X159450106Y-72879788D01*
X159450109Y-72879786D01*
X159575048Y-72707820D01*
X159575047Y-72707820D01*
X159575051Y-72707816D01*
X159579514Y-72699054D01*
X159627488Y-72648259D01*
X159695308Y-72631463D01*
X159761444Y-72653999D01*
X159800486Y-72699056D01*
X159804951Y-72707820D01*
X159929890Y-72879786D01*
X160080213Y-73030109D01*
X160252179Y-73155048D01*
X160252181Y-73155049D01*
X160252184Y-73155051D01*
X160441588Y-73251557D01*
X160643757Y-73317246D01*
X160853713Y-73350500D01*
X160853714Y-73350500D01*
X161066286Y-73350500D01*
X161066287Y-73350500D01*
X161276243Y-73317246D01*
X161478412Y-73251557D01*
X161667816Y-73155051D01*
X161754138Y-73092335D01*
X161839786Y-73030109D01*
X161839788Y-73030106D01*
X161839792Y-73030104D01*
X161990104Y-72879792D01*
X161990106Y-72879788D01*
X161990109Y-72879786D01*
X162057515Y-72787007D01*
X162115051Y-72707816D01*
X162119793Y-72698508D01*
X162167763Y-72647711D01*
X162235583Y-72630911D01*
X162301719Y-72653445D01*
X162340763Y-72698500D01*
X162345373Y-72707547D01*
X162384728Y-72761716D01*
X163017037Y-72129408D01*
X163034075Y-72192993D01*
X163099901Y-72307007D01*
X163192993Y-72400099D01*
X163307007Y-72465925D01*
X163370590Y-72482962D01*
X162738282Y-73115269D01*
X162738282Y-73115270D01*
X162792449Y-73154624D01*
X162981782Y-73251095D01*
X163183870Y-73316757D01*
X163393754Y-73350000D01*
X163606246Y-73350000D01*
X163816127Y-73316757D01*
X163816130Y-73316757D01*
X164018217Y-73251095D01*
X164207554Y-73154622D01*
X164261716Y-73115270D01*
X164261717Y-73115270D01*
X163629408Y-72482962D01*
X163692993Y-72465925D01*
X163807007Y-72400099D01*
X163900099Y-72307007D01*
X163965925Y-72192993D01*
X163982962Y-72129408D01*
X164653181Y-72799628D01*
X164686666Y-72860951D01*
X164689500Y-72887300D01*
X164689500Y-72897865D01*
X164689501Y-72897876D01*
X164695908Y-72957483D01*
X164746202Y-73092328D01*
X164746206Y-73092335D01*
X164832452Y-73207544D01*
X164832455Y-73207547D01*
X164947664Y-73293793D01*
X164947671Y-73293797D01*
X165082517Y-73344091D01*
X165082516Y-73344091D01*
X165089444Y-73344835D01*
X165142127Y-73350500D01*
X166937872Y-73350499D01*
X166997483Y-73344091D01*
X167043277Y-73327011D01*
X167118690Y-73298884D01*
X167118690Y-73298883D01*
X167132331Y-73293796D01*
X167247546Y-73207546D01*
X167333796Y-73092331D01*
X167384091Y-72957483D01*
X167390500Y-72897873D01*
X167390499Y-71421153D01*
X191199500Y-71421153D01*
X191199500Y-71578846D01*
X191230261Y-71733489D01*
X191230264Y-71733501D01*
X191290602Y-71879172D01*
X191290609Y-71879185D01*
X191378210Y-72010288D01*
X191378213Y-72010292D01*
X191489707Y-72121786D01*
X191489711Y-72121789D01*
X191620814Y-72209390D01*
X191620827Y-72209397D01*
X191766498Y-72269735D01*
X191766503Y-72269737D01*
X191921153Y-72300499D01*
X191921156Y-72300500D01*
X191921158Y-72300500D01*
X192078844Y-72300500D01*
X192078845Y-72300499D01*
X192233497Y-72269737D01*
X192379179Y-72209394D01*
X192403725Y-72192993D01*
X192510875Y-72121398D01*
X192577553Y-72100520D01*
X192579766Y-72100500D01*
X195420234Y-72100500D01*
X195487273Y-72120185D01*
X195489125Y-72121398D01*
X195620814Y-72209390D01*
X195620827Y-72209397D01*
X195766498Y-72269735D01*
X195766503Y-72269737D01*
X195921153Y-72300499D01*
X195921156Y-72300500D01*
X195921158Y-72300500D01*
X196078844Y-72300500D01*
X196078845Y-72300499D01*
X196233497Y-72269737D01*
X196379179Y-72209394D01*
X196510289Y-72121789D01*
X196621789Y-72010289D01*
X196709394Y-71879179D01*
X196769737Y-71733497D01*
X196800500Y-71578842D01*
X196800500Y-71421158D01*
X196800500Y-71421155D01*
X196800499Y-71421153D01*
X196790033Y-71368536D01*
X196769737Y-71266503D01*
X196758048Y-71238282D01*
X196709397Y-71120827D01*
X196709390Y-71120814D01*
X196621789Y-70989711D01*
X196621786Y-70989707D01*
X196510292Y-70878213D01*
X196510288Y-70878210D01*
X196379185Y-70790609D01*
X196379172Y-70790602D01*
X196233501Y-70730264D01*
X196233489Y-70730261D01*
X196078845Y-70699500D01*
X196078842Y-70699500D01*
X195921158Y-70699500D01*
X195921155Y-70699500D01*
X195766510Y-70730261D01*
X195766498Y-70730264D01*
X195620827Y-70790602D01*
X195620814Y-70790609D01*
X195489125Y-70878602D01*
X195422447Y-70899480D01*
X195420234Y-70899500D01*
X192579766Y-70899500D01*
X192512727Y-70879815D01*
X192510875Y-70878602D01*
X192379185Y-70790609D01*
X192379172Y-70790602D01*
X192233501Y-70730264D01*
X192233489Y-70730261D01*
X192078845Y-70699500D01*
X192078842Y-70699500D01*
X191921158Y-70699500D01*
X191921155Y-70699500D01*
X191766510Y-70730261D01*
X191766498Y-70730264D01*
X191620827Y-70790602D01*
X191620814Y-70790609D01*
X191489711Y-70878210D01*
X191489707Y-70878213D01*
X191378213Y-70989707D01*
X191378210Y-70989711D01*
X191290609Y-71120814D01*
X191290602Y-71120827D01*
X191230264Y-71266498D01*
X191230261Y-71266510D01*
X191199500Y-71421153D01*
X167390499Y-71421153D01*
X167390499Y-71102128D01*
X167384091Y-71042517D01*
X167333796Y-70907669D01*
X167333795Y-70907668D01*
X167333793Y-70907664D01*
X167247547Y-70792455D01*
X167247544Y-70792452D01*
X167132335Y-70706206D01*
X167132328Y-70706202D01*
X166997482Y-70655908D01*
X166997483Y-70655908D01*
X166937883Y-70649501D01*
X166937881Y-70649500D01*
X166937873Y-70649500D01*
X166937864Y-70649500D01*
X165142129Y-70649500D01*
X165142123Y-70649501D01*
X165082516Y-70655908D01*
X164947671Y-70706202D01*
X164947664Y-70706206D01*
X164832455Y-70792452D01*
X164832452Y-70792455D01*
X164746206Y-70907664D01*
X164746202Y-70907671D01*
X164695908Y-71042517D01*
X164689501Y-71102116D01*
X164689501Y-71102123D01*
X164689500Y-71102135D01*
X164689500Y-71112690D01*
X164669815Y-71179729D01*
X164653181Y-71200371D01*
X163982962Y-71870590D01*
X163965925Y-71807007D01*
X163900099Y-71692993D01*
X163807007Y-71599901D01*
X163692993Y-71534075D01*
X163629409Y-71517037D01*
X164261716Y-70884728D01*
X164207550Y-70845375D01*
X164018217Y-70748904D01*
X163816129Y-70683242D01*
X163606246Y-70650000D01*
X163393754Y-70650000D01*
X163183872Y-70683242D01*
X163183869Y-70683242D01*
X162981782Y-70748904D01*
X162792439Y-70845380D01*
X162738282Y-70884727D01*
X162738282Y-70884728D01*
X163370591Y-71517037D01*
X163307007Y-71534075D01*
X163192993Y-71599901D01*
X163099901Y-71692993D01*
X163034075Y-71807007D01*
X163017037Y-71870591D01*
X162384728Y-71238282D01*
X162384727Y-71238282D01*
X162345380Y-71292440D01*
X162345376Y-71292446D01*
X162340760Y-71301505D01*
X162292781Y-71352297D01*
X162224959Y-71369087D01*
X162158826Y-71346543D01*
X162119794Y-71301493D01*
X162115051Y-71292184D01*
X162115049Y-71292181D01*
X162115048Y-71292179D01*
X161990109Y-71120213D01*
X161839786Y-70969890D01*
X161667820Y-70844951D01*
X161478414Y-70748444D01*
X161478413Y-70748443D01*
X161478412Y-70748443D01*
X161276243Y-70682754D01*
X161276241Y-70682753D01*
X161276240Y-70682753D01*
X161114957Y-70657208D01*
X161066287Y-70649500D01*
X160853713Y-70649500D01*
X160805042Y-70657208D01*
X160643760Y-70682753D01*
X160441585Y-70748444D01*
X160252179Y-70844951D01*
X160080213Y-70969890D01*
X159929890Y-71120213D01*
X159804949Y-71292182D01*
X159800484Y-71300946D01*
X159752509Y-71351742D01*
X159684688Y-71368536D01*
X159618553Y-71345998D01*
X159579516Y-71300946D01*
X159575050Y-71292182D01*
X159450109Y-71120213D01*
X159299786Y-70969890D01*
X159127820Y-70844951D01*
X158938414Y-70748444D01*
X158938413Y-70748443D01*
X158938412Y-70748443D01*
X158736243Y-70682754D01*
X158736241Y-70682753D01*
X158736240Y-70682753D01*
X158574957Y-70657208D01*
X158526287Y-70649500D01*
X158313713Y-70649500D01*
X158265042Y-70657208D01*
X158103760Y-70682753D01*
X157901585Y-70748444D01*
X157712179Y-70844951D01*
X157540213Y-70969890D01*
X157389890Y-71120213D01*
X157264949Y-71292182D01*
X157260484Y-71300946D01*
X157212509Y-71351742D01*
X157144688Y-71368536D01*
X157078553Y-71345998D01*
X157039516Y-71300946D01*
X157035050Y-71292182D01*
X156910109Y-71120213D01*
X156759786Y-70969890D01*
X156587820Y-70844951D01*
X156398414Y-70748444D01*
X156398413Y-70748443D01*
X156398412Y-70748443D01*
X156196243Y-70682754D01*
X156196241Y-70682753D01*
X156196240Y-70682753D01*
X156034957Y-70657208D01*
X155986287Y-70649500D01*
X155773713Y-70649500D01*
X155725042Y-70657208D01*
X155563760Y-70682753D01*
X155361585Y-70748444D01*
X155172179Y-70844951D01*
X155000213Y-70969890D01*
X154849890Y-71120213D01*
X154724949Y-71292182D01*
X154720484Y-71300946D01*
X154672509Y-71351742D01*
X154604688Y-71368536D01*
X154538553Y-71345998D01*
X154499516Y-71300946D01*
X154495050Y-71292182D01*
X154370109Y-71120213D01*
X154219786Y-70969890D01*
X154047820Y-70844951D01*
X153858414Y-70748444D01*
X153858413Y-70748443D01*
X153858412Y-70748443D01*
X153656243Y-70682754D01*
X153656241Y-70682753D01*
X153656240Y-70682753D01*
X153494957Y-70657208D01*
X153446287Y-70649500D01*
X153233713Y-70649500D01*
X153185042Y-70657208D01*
X153023760Y-70682753D01*
X152821585Y-70748444D01*
X152632179Y-70844951D01*
X152460213Y-70969890D01*
X152309890Y-71120213D01*
X152184949Y-71292182D01*
X152180484Y-71300946D01*
X152132509Y-71351742D01*
X152064688Y-71368536D01*
X151998553Y-71345998D01*
X151959516Y-71300946D01*
X151955050Y-71292182D01*
X151830109Y-71120213D01*
X151679786Y-70969890D01*
X151507820Y-70844951D01*
X151318414Y-70748444D01*
X151318413Y-70748443D01*
X151318412Y-70748443D01*
X151116243Y-70682754D01*
X151116241Y-70682753D01*
X151116240Y-70682753D01*
X150954957Y-70657208D01*
X150906287Y-70649500D01*
X150693713Y-70649500D01*
X150645042Y-70657208D01*
X150483760Y-70682753D01*
X150281585Y-70748444D01*
X150092179Y-70844951D01*
X149920213Y-70969890D01*
X149769890Y-71120213D01*
X149644949Y-71292182D01*
X149640484Y-71300946D01*
X149592509Y-71351742D01*
X149524688Y-71368536D01*
X149458553Y-71345998D01*
X149419516Y-71300946D01*
X149415050Y-71292182D01*
X149290109Y-71120213D01*
X149139786Y-70969890D01*
X148967820Y-70844951D01*
X148778414Y-70748444D01*
X148778413Y-70748443D01*
X148778412Y-70748443D01*
X148576243Y-70682754D01*
X148576241Y-70682753D01*
X148576240Y-70682753D01*
X148414957Y-70657208D01*
X148366287Y-70649500D01*
X148153713Y-70649500D01*
X148105042Y-70657208D01*
X147943760Y-70682753D01*
X147741585Y-70748444D01*
X147552179Y-70844951D01*
X147380213Y-70969890D01*
X147229890Y-71120213D01*
X147104951Y-71292179D01*
X147008444Y-71481585D01*
X146942753Y-71683760D01*
X146909500Y-71893713D01*
X145000500Y-71893713D01*
X145000500Y-65921153D01*
X162199500Y-65921153D01*
X162199500Y-66078846D01*
X162230261Y-66233489D01*
X162230264Y-66233501D01*
X162290602Y-66379172D01*
X162290609Y-66379185D01*
X162378210Y-66510288D01*
X162378213Y-66510292D01*
X162489707Y-66621786D01*
X162489711Y-66621789D01*
X162620814Y-66709390D01*
X162620827Y-66709397D01*
X162766498Y-66769735D01*
X162766503Y-66769737D01*
X162921153Y-66800499D01*
X162921156Y-66800500D01*
X162921158Y-66800500D01*
X163078844Y-66800500D01*
X163078845Y-66800499D01*
X163233497Y-66769737D01*
X163379179Y-66709394D01*
X163379185Y-66709390D01*
X163510875Y-66621398D01*
X163577553Y-66600520D01*
X163579766Y-66600500D01*
X167420234Y-66600500D01*
X167487273Y-66620185D01*
X167489125Y-66621398D01*
X167620814Y-66709390D01*
X167620827Y-66709397D01*
X167766498Y-66769735D01*
X167766503Y-66769737D01*
X167921153Y-66800499D01*
X167921156Y-66800500D01*
X167921158Y-66800500D01*
X168078844Y-66800500D01*
X168078845Y-66800499D01*
X168233497Y-66769737D01*
X168379179Y-66709394D01*
X168510289Y-66621789D01*
X168621789Y-66510289D01*
X168709394Y-66379179D01*
X168769737Y-66233497D01*
X168800500Y-66078842D01*
X168800500Y-65921158D01*
X168800500Y-65921155D01*
X168800499Y-65921153D01*
X168769738Y-65766510D01*
X168769737Y-65766503D01*
X168754032Y-65728587D01*
X168709397Y-65620827D01*
X168709390Y-65620814D01*
X168621789Y-65489711D01*
X168621786Y-65489707D01*
X168510292Y-65378213D01*
X168510288Y-65378210D01*
X168379185Y-65290609D01*
X168379172Y-65290602D01*
X168233501Y-65230264D01*
X168233489Y-65230261D01*
X168078845Y-65199500D01*
X168078842Y-65199500D01*
X167921158Y-65199500D01*
X167921155Y-65199500D01*
X167766510Y-65230261D01*
X167766498Y-65230264D01*
X167620827Y-65290602D01*
X167620814Y-65290609D01*
X167489125Y-65378602D01*
X167422447Y-65399480D01*
X167420234Y-65399500D01*
X163579766Y-65399500D01*
X163512727Y-65379815D01*
X163510875Y-65378602D01*
X163379185Y-65290609D01*
X163379172Y-65290602D01*
X163233501Y-65230264D01*
X163233489Y-65230261D01*
X163078845Y-65199500D01*
X163078842Y-65199500D01*
X162921158Y-65199500D01*
X162921155Y-65199500D01*
X162766510Y-65230261D01*
X162766498Y-65230264D01*
X162620827Y-65290602D01*
X162620814Y-65290609D01*
X162489711Y-65378210D01*
X162489707Y-65378213D01*
X162378213Y-65489707D01*
X162378210Y-65489711D01*
X162290609Y-65620814D01*
X162290602Y-65620827D01*
X162230264Y-65766498D01*
X162230261Y-65766510D01*
X162199500Y-65921153D01*
X145000500Y-65921153D01*
X145000500Y-57921153D01*
X166199500Y-57921153D01*
X166199500Y-58078846D01*
X166230261Y-58233489D01*
X166230264Y-58233501D01*
X166290602Y-58379172D01*
X166290609Y-58379185D01*
X166378602Y-58510874D01*
X166399480Y-58577551D01*
X166399500Y-58579765D01*
X166399500Y-63420234D01*
X166379815Y-63487273D01*
X166378602Y-63489125D01*
X166290609Y-63620814D01*
X166290602Y-63620827D01*
X166230264Y-63766498D01*
X166230261Y-63766510D01*
X166199500Y-63921153D01*
X166199500Y-64078846D01*
X166230261Y-64233489D01*
X166230264Y-64233501D01*
X166290602Y-64379172D01*
X166290609Y-64379185D01*
X166378210Y-64510288D01*
X166378213Y-64510292D01*
X166489707Y-64621786D01*
X166489711Y-64621789D01*
X166620814Y-64709390D01*
X166620827Y-64709397D01*
X166766498Y-64769735D01*
X166766503Y-64769737D01*
X166921153Y-64800499D01*
X166921156Y-64800500D01*
X166921158Y-64800500D01*
X167078844Y-64800500D01*
X167078845Y-64800499D01*
X167233497Y-64769737D01*
X167379179Y-64709394D01*
X167510289Y-64621789D01*
X167621789Y-64510289D01*
X167709394Y-64379179D01*
X167769737Y-64233497D01*
X167800500Y-64078842D01*
X167800500Y-63921158D01*
X167800500Y-63921155D01*
X167800499Y-63921153D01*
X167769737Y-63766503D01*
X167766341Y-63758305D01*
X167709397Y-63620827D01*
X167709390Y-63620814D01*
X167621398Y-63489125D01*
X167600520Y-63422447D01*
X167600500Y-63420234D01*
X167600500Y-60921153D01*
X169199500Y-60921153D01*
X169199500Y-61078846D01*
X169230261Y-61233489D01*
X169230264Y-61233501D01*
X169290602Y-61379172D01*
X169290609Y-61379185D01*
X169378602Y-61510874D01*
X169399480Y-61577551D01*
X169399500Y-61579765D01*
X169399500Y-66980234D01*
X169379815Y-67047273D01*
X169378602Y-67049125D01*
X169290609Y-67180814D01*
X169290602Y-67180827D01*
X169230264Y-67326498D01*
X169230261Y-67326510D01*
X169199500Y-67481153D01*
X169199500Y-67638846D01*
X169230261Y-67793489D01*
X169230264Y-67793501D01*
X169290602Y-67939172D01*
X169290609Y-67939185D01*
X169378210Y-68070288D01*
X169378213Y-68070292D01*
X169489707Y-68181786D01*
X169489711Y-68181789D01*
X169620814Y-68269390D01*
X169620827Y-68269397D01*
X169766498Y-68329735D01*
X169766503Y-68329737D01*
X169883147Y-68352939D01*
X169921153Y-68360499D01*
X169921156Y-68360500D01*
X169921158Y-68360500D01*
X170078844Y-68360500D01*
X170078845Y-68360499D01*
X170233497Y-68329737D01*
X170379179Y-68269394D01*
X170510289Y-68181789D01*
X170621789Y-68070289D01*
X170709394Y-67939179D01*
X170769737Y-67793497D01*
X170800500Y-67638842D01*
X170800500Y-67481158D01*
X170800500Y-67481155D01*
X170800499Y-67481153D01*
X170793851Y-67447730D01*
X170769737Y-67326503D01*
X170733078Y-67238000D01*
X170709397Y-67180827D01*
X170709390Y-67180814D01*
X170621398Y-67049125D01*
X170600520Y-66982447D01*
X170600500Y-66980234D01*
X170600500Y-61579765D01*
X170620185Y-61512726D01*
X170621398Y-61510874D01*
X170709390Y-61379185D01*
X170709390Y-61379184D01*
X170709394Y-61379179D01*
X170769737Y-61233497D01*
X170800500Y-61078842D01*
X170800500Y-60921158D01*
X170800500Y-60921155D01*
X170800499Y-60921153D01*
X170769738Y-60766510D01*
X170769737Y-60766503D01*
X170720895Y-60648587D01*
X170709397Y-60620827D01*
X170709390Y-60620814D01*
X170621789Y-60489711D01*
X170621786Y-60489707D01*
X170510292Y-60378213D01*
X170510288Y-60378210D01*
X170379185Y-60290609D01*
X170379172Y-60290602D01*
X170233501Y-60230264D01*
X170233489Y-60230261D01*
X170078845Y-60199500D01*
X170078842Y-60199500D01*
X169921158Y-60199500D01*
X169921155Y-60199500D01*
X169766510Y-60230261D01*
X169766498Y-60230264D01*
X169620827Y-60290602D01*
X169620814Y-60290609D01*
X169489711Y-60378210D01*
X169489707Y-60378213D01*
X169378213Y-60489707D01*
X169378210Y-60489711D01*
X169290609Y-60620814D01*
X169290602Y-60620827D01*
X169230264Y-60766498D01*
X169230261Y-60766510D01*
X169199500Y-60921153D01*
X167600500Y-60921153D01*
X167600500Y-58579765D01*
X167620185Y-58512726D01*
X167621398Y-58510874D01*
X167709390Y-58379185D01*
X167709390Y-58379184D01*
X167709394Y-58379179D01*
X167769737Y-58233497D01*
X167800500Y-58078842D01*
X167800500Y-57921158D01*
X167800500Y-57921155D01*
X167800499Y-57921153D01*
X167792271Y-57879787D01*
X167769737Y-57766503D01*
X167768277Y-57762978D01*
X167709397Y-57620827D01*
X167709390Y-57620814D01*
X167621789Y-57489711D01*
X167621786Y-57489707D01*
X167510292Y-57378213D01*
X167510288Y-57378210D01*
X167379185Y-57290609D01*
X167379172Y-57290602D01*
X167233501Y-57230264D01*
X167233489Y-57230261D01*
X167078845Y-57199500D01*
X167078842Y-57199500D01*
X166921158Y-57199500D01*
X166921155Y-57199500D01*
X166766510Y-57230261D01*
X166766498Y-57230264D01*
X166620827Y-57290602D01*
X166620814Y-57290609D01*
X166489711Y-57378210D01*
X166489707Y-57378213D01*
X166378213Y-57489707D01*
X166378210Y-57489711D01*
X166290609Y-57620814D01*
X166290602Y-57620827D01*
X166230264Y-57766498D01*
X166230261Y-57766510D01*
X166199500Y-57921153D01*
X145000500Y-57921153D01*
X145000500Y-51620639D01*
X171117500Y-51620639D01*
X171117500Y-51819361D01*
X171120501Y-51838306D01*
X171148587Y-52015637D01*
X171209993Y-52204629D01*
X171209994Y-52204632D01*
X171294121Y-52369737D01*
X171300213Y-52381694D01*
X171417019Y-52542464D01*
X171557536Y-52682981D01*
X171718306Y-52799787D01*
X171836832Y-52860179D01*
X171874780Y-52879515D01*
X171925576Y-52927490D01*
X171942371Y-52995311D01*
X171919833Y-53061446D01*
X171874780Y-53100485D01*
X171718305Y-53180213D01*
X171557533Y-53297021D01*
X171417021Y-53437533D01*
X171300213Y-53598305D01*
X171209994Y-53775367D01*
X171209993Y-53775370D01*
X171148587Y-53964362D01*
X171117500Y-54160639D01*
X171117500Y-54359360D01*
X171148587Y-54555637D01*
X171209993Y-54744629D01*
X171209994Y-54744632D01*
X171300213Y-54921694D01*
X171417019Y-55082464D01*
X171557536Y-55222981D01*
X171718306Y-55339787D01*
X171836832Y-55400179D01*
X171874780Y-55419515D01*
X171925576Y-55467490D01*
X171942371Y-55535311D01*
X171919833Y-55601446D01*
X171874780Y-55640485D01*
X171718305Y-55720213D01*
X171557533Y-55837021D01*
X171417021Y-55977533D01*
X171300213Y-56138305D01*
X171209994Y-56315367D01*
X171209993Y-56315370D01*
X171148587Y-56504362D01*
X171117500Y-56700639D01*
X171117500Y-56899360D01*
X171148587Y-57095637D01*
X171209993Y-57284629D01*
X171209994Y-57284632D01*
X171257676Y-57378211D01*
X171300213Y-57461694D01*
X171417019Y-57622464D01*
X171557536Y-57762981D01*
X171718306Y-57879787D01*
X171799491Y-57921153D01*
X171874780Y-57959515D01*
X171925576Y-58007490D01*
X171942371Y-58075311D01*
X171919833Y-58141446D01*
X171874780Y-58180485D01*
X171718305Y-58260213D01*
X171557533Y-58377021D01*
X171417021Y-58517533D01*
X171300213Y-58678305D01*
X171209994Y-58855367D01*
X171209993Y-58855370D01*
X171148587Y-59044362D01*
X171117500Y-59240639D01*
X171117500Y-59439360D01*
X171148587Y-59635637D01*
X171209993Y-59824629D01*
X171209994Y-59824632D01*
X171300213Y-60001694D01*
X171417019Y-60162464D01*
X171557536Y-60302981D01*
X171718306Y-60419787D01*
X171836832Y-60480179D01*
X171874780Y-60499515D01*
X171925576Y-60547490D01*
X171942371Y-60615311D01*
X171919833Y-60681446D01*
X171874780Y-60720485D01*
X171718305Y-60800213D01*
X171557533Y-60917021D01*
X171417021Y-61057533D01*
X171300213Y-61218305D01*
X171209994Y-61395367D01*
X171209993Y-61395370D01*
X171148587Y-61584362D01*
X171117500Y-61780639D01*
X171117500Y-61979360D01*
X171148587Y-62175637D01*
X171209993Y-62364629D01*
X171209994Y-62364632D01*
X171300213Y-62541694D01*
X171417019Y-62702464D01*
X171557536Y-62842981D01*
X171718306Y-62959787D01*
X171836832Y-63020179D01*
X171874780Y-63039515D01*
X171925576Y-63087490D01*
X171942371Y-63155311D01*
X171919833Y-63221446D01*
X171874780Y-63260485D01*
X171718305Y-63340213D01*
X171557533Y-63457021D01*
X171417021Y-63597533D01*
X171300213Y-63758305D01*
X171209994Y-63935367D01*
X171209993Y-63935370D01*
X171148587Y-64124362D01*
X171117500Y-64320639D01*
X171117500Y-64519360D01*
X171148587Y-64715637D01*
X171209993Y-64904629D01*
X171209994Y-64904632D01*
X171300213Y-65081694D01*
X171417019Y-65242464D01*
X171557536Y-65382981D01*
X171718306Y-65499787D01*
X171836832Y-65560179D01*
X171874780Y-65579515D01*
X171925576Y-65627490D01*
X171942371Y-65695311D01*
X171919833Y-65761446D01*
X171874780Y-65800485D01*
X171718305Y-65880213D01*
X171557533Y-65997021D01*
X171417021Y-66137533D01*
X171300213Y-66298305D01*
X171209994Y-66475367D01*
X171209993Y-66475370D01*
X171148587Y-66664362D01*
X171117500Y-66860639D01*
X171117500Y-67059360D01*
X171148587Y-67255637D01*
X171209993Y-67444629D01*
X171209994Y-67444632D01*
X171300213Y-67621694D01*
X171417019Y-67782464D01*
X171557536Y-67922981D01*
X171718306Y-68039787D01*
X171875332Y-68119796D01*
X171926127Y-68167769D01*
X171942922Y-68235590D01*
X171920385Y-68301725D01*
X171875332Y-68340764D01*
X171718566Y-68420641D01*
X171681283Y-68447729D01*
X171681282Y-68447730D01*
X172352554Y-69119000D01*
X172329840Y-69119000D01*
X172232939Y-69144964D01*
X172146060Y-69195124D01*
X172075124Y-69266060D01*
X172024964Y-69352939D01*
X171999000Y-69449840D01*
X171999000Y-69472552D01*
X171327730Y-68801282D01*
X171327729Y-68801283D01*
X171300643Y-68838564D01*
X171210457Y-69015562D01*
X171149075Y-69204476D01*
X171149075Y-69204479D01*
X171118000Y-69400678D01*
X171118000Y-69599321D01*
X171149075Y-69795520D01*
X171149075Y-69795523D01*
X171210457Y-69984437D01*
X171300641Y-70161432D01*
X171327730Y-70198715D01*
X171327731Y-70198716D01*
X171999000Y-69527447D01*
X171999000Y-69550160D01*
X172024964Y-69647061D01*
X172075124Y-69733940D01*
X172146060Y-69804876D01*
X172232939Y-69855036D01*
X172329840Y-69881000D01*
X172352553Y-69881000D01*
X171681283Y-70552268D01*
X171681283Y-70552269D01*
X171718567Y-70579358D01*
X171895562Y-70669542D01*
X172084477Y-70730924D01*
X172280679Y-70762000D01*
X172479321Y-70762000D01*
X172675520Y-70730924D01*
X172675523Y-70730924D01*
X172864437Y-70669542D01*
X173041425Y-70579362D01*
X173078716Y-70552268D01*
X172407448Y-69881000D01*
X172430160Y-69881000D01*
X172527061Y-69855036D01*
X172613940Y-69804876D01*
X172684876Y-69733940D01*
X172735036Y-69647061D01*
X172761000Y-69550160D01*
X172761000Y-69527447D01*
X173432268Y-70198715D01*
X173459362Y-70161425D01*
X173549542Y-69984437D01*
X173610924Y-69795523D01*
X173610924Y-69795520D01*
X173642000Y-69599321D01*
X173642000Y-69400678D01*
X173610924Y-69204479D01*
X173610924Y-69204476D01*
X173549542Y-69015562D01*
X173459358Y-68838567D01*
X173432268Y-68801283D01*
X172761000Y-69472551D01*
X172761000Y-69449840D01*
X172735036Y-69352939D01*
X172684876Y-69266060D01*
X172613940Y-69195124D01*
X172527061Y-69144964D01*
X172430160Y-69119000D01*
X172407447Y-69119000D01*
X173078716Y-68447731D01*
X173078715Y-68447730D01*
X173041432Y-68420641D01*
X172884668Y-68340765D01*
X172833872Y-68292790D01*
X172817077Y-68224969D01*
X172839615Y-68158834D01*
X172884667Y-68119796D01*
X173041694Y-68039787D01*
X173202464Y-67922981D01*
X173342981Y-67782464D01*
X173459787Y-67621694D01*
X173550005Y-67444632D01*
X173611413Y-67255636D01*
X173642500Y-67059361D01*
X173642500Y-66860639D01*
X173611413Y-66664364D01*
X173580709Y-66569866D01*
X173550006Y-66475370D01*
X173550005Y-66475367D01*
X173459786Y-66298305D01*
X173430980Y-66258657D01*
X173342981Y-66137536D01*
X173202464Y-65997019D01*
X173041694Y-65880213D01*
X172885218Y-65800484D01*
X172834423Y-65752510D01*
X172817628Y-65684689D01*
X172840165Y-65618554D01*
X172885218Y-65579515D01*
X173041694Y-65499787D01*
X173202464Y-65382981D01*
X173342981Y-65242464D01*
X173459787Y-65081694D01*
X173550005Y-64904632D01*
X173611413Y-64715636D01*
X173642500Y-64519361D01*
X173642500Y-64320639D01*
X173611413Y-64124364D01*
X173550005Y-63935368D01*
X173550005Y-63935367D01*
X173504035Y-63845149D01*
X173459787Y-63758306D01*
X173342981Y-63597536D01*
X173202464Y-63457019D01*
X173041694Y-63340213D01*
X172885218Y-63260484D01*
X172834423Y-63212510D01*
X172817628Y-63144689D01*
X172840165Y-63078554D01*
X172885218Y-63039515D01*
X173041694Y-62959787D01*
X173202464Y-62842981D01*
X173342981Y-62702464D01*
X173459787Y-62541694D01*
X173550005Y-62364632D01*
X173611413Y-62175636D01*
X173642500Y-61979361D01*
X173642500Y-61780639D01*
X173611413Y-61584364D01*
X173550005Y-61395368D01*
X173550005Y-61395367D01*
X173459786Y-61218305D01*
X173380686Y-61109433D01*
X173342981Y-61057536D01*
X173202464Y-60917019D01*
X173041694Y-60800213D01*
X172885218Y-60720484D01*
X172834423Y-60672510D01*
X172817628Y-60604689D01*
X172840165Y-60538554D01*
X172885218Y-60499515D01*
X173041694Y-60419787D01*
X173202464Y-60302981D01*
X173342981Y-60162464D01*
X173459787Y-60001694D01*
X173550005Y-59824632D01*
X173611413Y-59635636D01*
X173642500Y-59439361D01*
X173642500Y-59240639D01*
X173611413Y-59044364D01*
X173550005Y-58855368D01*
X173550005Y-58855367D01*
X173459786Y-58678305D01*
X173342981Y-58517536D01*
X173202464Y-58377019D01*
X173041694Y-58260213D01*
X172885218Y-58180484D01*
X172834423Y-58132510D01*
X172817628Y-58064689D01*
X172840165Y-57998554D01*
X172885218Y-57959515D01*
X173041694Y-57879787D01*
X173202464Y-57762981D01*
X173342981Y-57622464D01*
X173459787Y-57461694D01*
X173550005Y-57284632D01*
X173611413Y-57095636D01*
X173642500Y-56899361D01*
X173642500Y-56700639D01*
X173611413Y-56504364D01*
X173550005Y-56315368D01*
X173550005Y-56315367D01*
X173498134Y-56213566D01*
X173459787Y-56138306D01*
X173342981Y-55977536D01*
X173202464Y-55837019D01*
X173041694Y-55720213D01*
X172885218Y-55640484D01*
X172834423Y-55592510D01*
X172817628Y-55524689D01*
X172840165Y-55458554D01*
X172885218Y-55419515D01*
X173041694Y-55339787D01*
X173202464Y-55222981D01*
X173342981Y-55082464D01*
X173459787Y-54921694D01*
X173550005Y-54744632D01*
X173611413Y-54555636D01*
X173642500Y-54359361D01*
X173642500Y-54160639D01*
X173611413Y-53964364D01*
X173550005Y-53775368D01*
X173550005Y-53775367D01*
X173459786Y-53598305D01*
X173446331Y-53579786D01*
X173342981Y-53437536D01*
X173202464Y-53297019D01*
X173041694Y-53180213D01*
X172885218Y-53100484D01*
X172834423Y-53052510D01*
X172817628Y-52984689D01*
X172840165Y-52918554D01*
X172885218Y-52879515D01*
X173041694Y-52799787D01*
X173202464Y-52682981D01*
X173342981Y-52542464D01*
X173459787Y-52381694D01*
X173550005Y-52204632D01*
X173611413Y-52015636D01*
X173642500Y-51819361D01*
X173642500Y-51620639D01*
X186117500Y-51620639D01*
X186117500Y-51819361D01*
X186120501Y-51838306D01*
X186148587Y-52015637D01*
X186209993Y-52204629D01*
X186209994Y-52204632D01*
X186294121Y-52369737D01*
X186300213Y-52381694D01*
X186417019Y-52542464D01*
X186557536Y-52682981D01*
X186718306Y-52799787D01*
X186836832Y-52860179D01*
X186874780Y-52879515D01*
X186925576Y-52927490D01*
X186942371Y-52995311D01*
X186919833Y-53061446D01*
X186874780Y-53100485D01*
X186718305Y-53180213D01*
X186557533Y-53297021D01*
X186417021Y-53437533D01*
X186300213Y-53598305D01*
X186209994Y-53775367D01*
X186209993Y-53775370D01*
X186148587Y-53964362D01*
X186117500Y-54160639D01*
X186117500Y-54359360D01*
X186148587Y-54555637D01*
X186209993Y-54744629D01*
X186209994Y-54744632D01*
X186300213Y-54921694D01*
X186417019Y-55082464D01*
X186557536Y-55222981D01*
X186718306Y-55339787D01*
X186875332Y-55419796D01*
X186926127Y-55467769D01*
X186942922Y-55535590D01*
X186920385Y-55601725D01*
X186875332Y-55640764D01*
X186718566Y-55720641D01*
X186681283Y-55747729D01*
X186681282Y-55747730D01*
X187352554Y-56419000D01*
X187329840Y-56419000D01*
X187232939Y-56444964D01*
X187146060Y-56495124D01*
X187075124Y-56566060D01*
X187024964Y-56652939D01*
X186999000Y-56749840D01*
X186999000Y-56772552D01*
X186327730Y-56101282D01*
X186327729Y-56101283D01*
X186300643Y-56138564D01*
X186210457Y-56315562D01*
X186149075Y-56504476D01*
X186149075Y-56504479D01*
X186118000Y-56700678D01*
X186118000Y-56899321D01*
X186149075Y-57095520D01*
X186149075Y-57095523D01*
X186210457Y-57284437D01*
X186300641Y-57461432D01*
X186327730Y-57498715D01*
X186327731Y-57498716D01*
X186999000Y-56827447D01*
X186999000Y-56850160D01*
X187024964Y-56947061D01*
X187075124Y-57033940D01*
X187146060Y-57104876D01*
X187232939Y-57155036D01*
X187329840Y-57181000D01*
X187352553Y-57181000D01*
X186681283Y-57852268D01*
X186681283Y-57852269D01*
X186718567Y-57879358D01*
X186875331Y-57959234D01*
X186926127Y-58007209D01*
X186942922Y-58075030D01*
X186920384Y-58141165D01*
X186875331Y-58180204D01*
X186718305Y-58260213D01*
X186557533Y-58377021D01*
X186417021Y-58517533D01*
X186300213Y-58678305D01*
X186209994Y-58855367D01*
X186209993Y-58855370D01*
X186148587Y-59044362D01*
X186117500Y-59240639D01*
X186117500Y-59439360D01*
X186148587Y-59635637D01*
X186209993Y-59824629D01*
X186209994Y-59824632D01*
X186300213Y-60001694D01*
X186417019Y-60162464D01*
X186557536Y-60302981D01*
X186718306Y-60419787D01*
X186836832Y-60480179D01*
X186874780Y-60499515D01*
X186925576Y-60547490D01*
X186942371Y-60615311D01*
X186919833Y-60681446D01*
X186874780Y-60720485D01*
X186718305Y-60800213D01*
X186557533Y-60917021D01*
X186417021Y-61057533D01*
X186300213Y-61218305D01*
X186209994Y-61395367D01*
X186209993Y-61395370D01*
X186148587Y-61584362D01*
X186117500Y-61780639D01*
X186117500Y-61979360D01*
X186148587Y-62175637D01*
X186209993Y-62364629D01*
X186209994Y-62364632D01*
X186300213Y-62541694D01*
X186417019Y-62702464D01*
X186557536Y-62842981D01*
X186718306Y-62959787D01*
X186836832Y-63020179D01*
X186874780Y-63039515D01*
X186925576Y-63087490D01*
X186942371Y-63155311D01*
X186919833Y-63221446D01*
X186874780Y-63260485D01*
X186718305Y-63340213D01*
X186557533Y-63457021D01*
X186417021Y-63597533D01*
X186300213Y-63758305D01*
X186209994Y-63935367D01*
X186209993Y-63935370D01*
X186148587Y-64124362D01*
X186117500Y-64320639D01*
X186117500Y-64519360D01*
X186148587Y-64715637D01*
X186209993Y-64904629D01*
X186209994Y-64904632D01*
X186300213Y-65081694D01*
X186417019Y-65242464D01*
X186557536Y-65382981D01*
X186718306Y-65499787D01*
X186836832Y-65560179D01*
X186874780Y-65579515D01*
X186925576Y-65627490D01*
X186942371Y-65695311D01*
X186919833Y-65761446D01*
X186874780Y-65800485D01*
X186718305Y-65880213D01*
X186557533Y-65997021D01*
X186417021Y-66137533D01*
X186300213Y-66298305D01*
X186209994Y-66475367D01*
X186209993Y-66475370D01*
X186148587Y-66664362D01*
X186117500Y-66860639D01*
X186117500Y-67059360D01*
X186148587Y-67255637D01*
X186209993Y-67444629D01*
X186209994Y-67444632D01*
X186300213Y-67621694D01*
X186417019Y-67782464D01*
X186557536Y-67922981D01*
X186718306Y-68039787D01*
X186875332Y-68119796D01*
X186926127Y-68167769D01*
X186942922Y-68235590D01*
X186920385Y-68301725D01*
X186875332Y-68340764D01*
X186718566Y-68420641D01*
X186681283Y-68447729D01*
X186681282Y-68447730D01*
X187352554Y-69119000D01*
X187329840Y-69119000D01*
X187232939Y-69144964D01*
X187146060Y-69195124D01*
X187075124Y-69266060D01*
X187024964Y-69352939D01*
X186999000Y-69449840D01*
X186999000Y-69472552D01*
X186327730Y-68801282D01*
X186327729Y-68801283D01*
X186300643Y-68838564D01*
X186210457Y-69015562D01*
X186149075Y-69204476D01*
X186149075Y-69204479D01*
X186118000Y-69400678D01*
X186118000Y-69599321D01*
X186149075Y-69795520D01*
X186149075Y-69795523D01*
X186210457Y-69984437D01*
X186300641Y-70161432D01*
X186327730Y-70198715D01*
X186327731Y-70198716D01*
X186999000Y-69527447D01*
X186999000Y-69550160D01*
X187024964Y-69647061D01*
X187075124Y-69733940D01*
X187146060Y-69804876D01*
X187232939Y-69855036D01*
X187329840Y-69881000D01*
X187352553Y-69881000D01*
X186681283Y-70552268D01*
X186681283Y-70552269D01*
X186718567Y-70579358D01*
X186895562Y-70669542D01*
X187084477Y-70730924D01*
X187280679Y-70762000D01*
X187479321Y-70762000D01*
X187675520Y-70730924D01*
X187675523Y-70730924D01*
X187864437Y-70669542D01*
X188041425Y-70579362D01*
X188078716Y-70552268D01*
X187407448Y-69881000D01*
X187430160Y-69881000D01*
X187527061Y-69855036D01*
X187613940Y-69804876D01*
X187684876Y-69733940D01*
X187735036Y-69647061D01*
X187761000Y-69550160D01*
X187761000Y-69527447D01*
X188432268Y-70198715D01*
X188459362Y-70161425D01*
X188549542Y-69984437D01*
X188610924Y-69795523D01*
X188610924Y-69795520D01*
X188642000Y-69599321D01*
X188642000Y-69400678D01*
X188610924Y-69204479D01*
X188610924Y-69204476D01*
X188549542Y-69015562D01*
X188459358Y-68838567D01*
X188432268Y-68801283D01*
X187761000Y-69472551D01*
X187761000Y-69449840D01*
X187735036Y-69352939D01*
X187684876Y-69266060D01*
X187613940Y-69195124D01*
X187527061Y-69144964D01*
X187430160Y-69119000D01*
X187407447Y-69119000D01*
X188078715Y-68447731D01*
X188078715Y-68447730D01*
X188041432Y-68420641D01*
X188002253Y-68400678D01*
X206198000Y-68400678D01*
X206198000Y-68599321D01*
X206229075Y-68795520D01*
X206229075Y-68795523D01*
X206290457Y-68984437D01*
X206380641Y-69161432D01*
X206407730Y-69198715D01*
X206407731Y-69198716D01*
X207079000Y-68527447D01*
X207079000Y-68550160D01*
X207104964Y-68647061D01*
X207155124Y-68733940D01*
X207226060Y-68804876D01*
X207312939Y-68855036D01*
X207409840Y-68881000D01*
X207432553Y-68881000D01*
X206761283Y-69552268D01*
X206761283Y-69552269D01*
X206798567Y-69579358D01*
X206975562Y-69669542D01*
X207164477Y-69730924D01*
X207360679Y-69762000D01*
X207559321Y-69762000D01*
X207755520Y-69730924D01*
X207755523Y-69730924D01*
X207944437Y-69669542D01*
X208121425Y-69579362D01*
X208158716Y-69552268D01*
X207487448Y-68881000D01*
X207510160Y-68881000D01*
X207607061Y-68855036D01*
X207693940Y-68804876D01*
X207764876Y-68733940D01*
X207815036Y-68647061D01*
X207841000Y-68550160D01*
X207841000Y-68527447D01*
X208512268Y-69198715D01*
X208539362Y-69161425D01*
X208619515Y-69004117D01*
X208667489Y-68953321D01*
X208735310Y-68936526D01*
X208801445Y-68959063D01*
X208840485Y-69004117D01*
X208920641Y-69161432D01*
X208947730Y-69198715D01*
X208947731Y-69198716D01*
X209619000Y-68527447D01*
X209619000Y-68550160D01*
X209644964Y-68647061D01*
X209695124Y-68733940D01*
X209766060Y-68804876D01*
X209852939Y-68855036D01*
X209949840Y-68881000D01*
X209972553Y-68881000D01*
X209301283Y-69552268D01*
X209301283Y-69552269D01*
X209338567Y-69579358D01*
X209515562Y-69669542D01*
X209704477Y-69730924D01*
X209900679Y-69762000D01*
X210099321Y-69762000D01*
X210295520Y-69730924D01*
X210295523Y-69730924D01*
X210484437Y-69669542D01*
X210661425Y-69579362D01*
X210698716Y-69552268D01*
X210027448Y-68881000D01*
X210050160Y-68881000D01*
X210147061Y-68855036D01*
X210233940Y-68804876D01*
X210304876Y-68733940D01*
X210355036Y-68647061D01*
X210381000Y-68550160D01*
X210381000Y-68527447D01*
X211052268Y-69198715D01*
X211079362Y-69161425D01*
X211169542Y-68984437D01*
X211230924Y-68795523D01*
X211230924Y-68795520D01*
X211262000Y-68599321D01*
X211262000Y-68400678D01*
X211230924Y-68204479D01*
X211230924Y-68204476D01*
X211169542Y-68015562D01*
X211079358Y-67838567D01*
X211052268Y-67801283D01*
X210381000Y-68472551D01*
X210381000Y-68449840D01*
X210355036Y-68352939D01*
X210304876Y-68266060D01*
X210233940Y-68195124D01*
X210147061Y-68144964D01*
X210050160Y-68119000D01*
X210027447Y-68119000D01*
X210698716Y-67447731D01*
X210698715Y-67447730D01*
X210661432Y-67420641D01*
X210484437Y-67330457D01*
X210295522Y-67269075D01*
X210099321Y-67238000D01*
X209900679Y-67238000D01*
X209704479Y-67269075D01*
X209704476Y-67269075D01*
X209515562Y-67330457D01*
X209338564Y-67420643D01*
X209301283Y-67447729D01*
X209301282Y-67447730D01*
X209972554Y-68119000D01*
X209949840Y-68119000D01*
X209852939Y-68144964D01*
X209766060Y-68195124D01*
X209695124Y-68266060D01*
X209644964Y-68352939D01*
X209619000Y-68449840D01*
X209619000Y-68472552D01*
X208947730Y-67801282D01*
X208947729Y-67801283D01*
X208920643Y-67838564D01*
X208840485Y-67995882D01*
X208792510Y-68046678D01*
X208724689Y-68063473D01*
X208658554Y-68040935D01*
X208619515Y-67995882D01*
X208539358Y-67838567D01*
X208512268Y-67801283D01*
X207841000Y-68472551D01*
X207841000Y-68449840D01*
X207815036Y-68352939D01*
X207764876Y-68266060D01*
X207693940Y-68195124D01*
X207607061Y-68144964D01*
X207510160Y-68119000D01*
X207487447Y-68119000D01*
X208158716Y-67447731D01*
X208158715Y-67447730D01*
X208121432Y-67420641D01*
X207944437Y-67330457D01*
X207755522Y-67269075D01*
X207559321Y-67238000D01*
X207360679Y-67238000D01*
X207164479Y-67269075D01*
X207164476Y-67269075D01*
X206975562Y-67330457D01*
X206798564Y-67420643D01*
X206761283Y-67447729D01*
X206761282Y-67447730D01*
X207432554Y-68119000D01*
X207409840Y-68119000D01*
X207312939Y-68144964D01*
X207226060Y-68195124D01*
X207155124Y-68266060D01*
X207104964Y-68352939D01*
X207079000Y-68449840D01*
X207079000Y-68472552D01*
X206407730Y-67801282D01*
X206407729Y-67801283D01*
X206380643Y-67838564D01*
X206290457Y-68015562D01*
X206229075Y-68204476D01*
X206229075Y-68204479D01*
X206198000Y-68400678D01*
X188002253Y-68400678D01*
X187884668Y-68340765D01*
X187833872Y-68292790D01*
X187817077Y-68224969D01*
X187839615Y-68158834D01*
X187884667Y-68119796D01*
X188041694Y-68039787D01*
X188202464Y-67922981D01*
X188342981Y-67782464D01*
X188459787Y-67621694D01*
X188550005Y-67444632D01*
X188611413Y-67255636D01*
X188642500Y-67059361D01*
X188642500Y-66860639D01*
X188611413Y-66664364D01*
X188580709Y-66569866D01*
X188550006Y-66475370D01*
X188550005Y-66475367D01*
X188459786Y-66298305D01*
X188430980Y-66258657D01*
X188342981Y-66137536D01*
X188202464Y-65997019D01*
X188041694Y-65880213D01*
X187885218Y-65800484D01*
X187834423Y-65752510D01*
X187817628Y-65684689D01*
X187840165Y-65618554D01*
X187885218Y-65579515D01*
X188041694Y-65499787D01*
X188202464Y-65382981D01*
X188342981Y-65242464D01*
X188459787Y-65081694D01*
X188550005Y-64904632D01*
X188611413Y-64715636D01*
X188642500Y-64519361D01*
X188642500Y-64320639D01*
X188611413Y-64124364D01*
X188550005Y-63935368D01*
X188550005Y-63935367D01*
X188504035Y-63845149D01*
X188459787Y-63758306D01*
X188342981Y-63597536D01*
X188202464Y-63457019D01*
X188041694Y-63340213D01*
X187885218Y-63260484D01*
X187834423Y-63212510D01*
X187817628Y-63144689D01*
X187840165Y-63078554D01*
X187885218Y-63039515D01*
X188041694Y-62959787D01*
X188202464Y-62842981D01*
X188342981Y-62702464D01*
X188459787Y-62541694D01*
X188541205Y-62381902D01*
X195999500Y-62381902D01*
X195999500Y-62618097D01*
X196036446Y-62851368D01*
X196109433Y-63075996D01*
X196150962Y-63157500D01*
X196216657Y-63286433D01*
X196355483Y-63477510D01*
X196355489Y-63477516D01*
X196358647Y-63481214D01*
X196356864Y-63482736D01*
X196385726Y-63535591D01*
X196380742Y-63605283D01*
X196338870Y-63661216D01*
X196329658Y-63667487D01*
X196281344Y-63697287D01*
X196157289Y-63821342D01*
X196065187Y-63970663D01*
X196065186Y-63970666D01*
X196010001Y-64137203D01*
X196010001Y-64137204D01*
X196010000Y-64137204D01*
X195999500Y-64239983D01*
X195999500Y-65840001D01*
X195999501Y-65840018D01*
X196010000Y-65942796D01*
X196010001Y-65942799D01*
X196055083Y-66078846D01*
X196065186Y-66109334D01*
X196157288Y-66258656D01*
X196281344Y-66382712D01*
X196430666Y-66474814D01*
X196597203Y-66529999D01*
X196699991Y-66540500D01*
X198300008Y-66540499D01*
X198402797Y-66529999D01*
X198569334Y-66474814D01*
X198718656Y-66382712D01*
X198842712Y-66258656D01*
X198934814Y-66109334D01*
X198989999Y-65942797D01*
X199000500Y-65840009D01*
X199000499Y-64239992D01*
X198989999Y-64137203D01*
X198934814Y-63970666D01*
X198842712Y-63821344D01*
X198718656Y-63697288D01*
X198718655Y-63697287D01*
X198670342Y-63667487D01*
X198623618Y-63615539D01*
X198612397Y-63546576D01*
X198640241Y-63482494D01*
X198641381Y-63481249D01*
X198641348Y-63481221D01*
X198644511Y-63477516D01*
X198644511Y-63477515D01*
X198644517Y-63477510D01*
X198783343Y-63286433D01*
X198890568Y-63075992D01*
X198963553Y-62851368D01*
X198987137Y-62702464D01*
X199000500Y-62618097D01*
X199000500Y-62381902D01*
X198963553Y-62148631D01*
X198890566Y-61924003D01*
X198783342Y-61713566D01*
X198644517Y-61522490D01*
X198477510Y-61355483D01*
X198286433Y-61216657D01*
X198075996Y-61109433D01*
X197851368Y-61036446D01*
X197618097Y-60999500D01*
X197618092Y-60999500D01*
X197381908Y-60999500D01*
X197381903Y-60999500D01*
X197148631Y-61036446D01*
X196924003Y-61109433D01*
X196713566Y-61216657D01*
X196690383Y-61233501D01*
X196522490Y-61355483D01*
X196522488Y-61355485D01*
X196522487Y-61355485D01*
X196355485Y-61522487D01*
X196355485Y-61522488D01*
X196355483Y-61522490D01*
X196315479Y-61577551D01*
X196216657Y-61713566D01*
X196109433Y-61924003D01*
X196036446Y-62148631D01*
X195999500Y-62381902D01*
X188541205Y-62381902D01*
X188550005Y-62364632D01*
X188611413Y-62175636D01*
X188642500Y-61979361D01*
X188642500Y-61780639D01*
X188611413Y-61584364D01*
X188550005Y-61395368D01*
X188550005Y-61395367D01*
X188459786Y-61218305D01*
X188380686Y-61109433D01*
X188342981Y-61057536D01*
X188202464Y-60917019D01*
X188041694Y-60800213D01*
X187885218Y-60720484D01*
X187834423Y-60672510D01*
X187817628Y-60604689D01*
X187840165Y-60538554D01*
X187885218Y-60499515D01*
X188041694Y-60419787D01*
X188202464Y-60302981D01*
X188342981Y-60162464D01*
X188459787Y-60001694D01*
X188550005Y-59824632D01*
X188611413Y-59635636D01*
X188642500Y-59439361D01*
X188642500Y-59240639D01*
X188611413Y-59044364D01*
X188550005Y-58855368D01*
X188550005Y-58855367D01*
X188459786Y-58678305D01*
X188342981Y-58517536D01*
X188202464Y-58377019D01*
X188041694Y-58260213D01*
X187884667Y-58180203D01*
X187833872Y-58132229D01*
X187817077Y-58064408D01*
X187839614Y-57998273D01*
X187884669Y-57959234D01*
X188041422Y-57879364D01*
X188078716Y-57852268D01*
X187407448Y-57181000D01*
X187430160Y-57181000D01*
X187527061Y-57155036D01*
X187613940Y-57104876D01*
X187684876Y-57033940D01*
X187735036Y-56947061D01*
X187761000Y-56850160D01*
X187761000Y-56827447D01*
X188432268Y-57498715D01*
X188459362Y-57461425D01*
X188549542Y-57284437D01*
X188610924Y-57095523D01*
X188610924Y-57095520D01*
X188642000Y-56899321D01*
X188642000Y-56700678D01*
X188610924Y-56504479D01*
X188610924Y-56504476D01*
X188549542Y-56315562D01*
X188459358Y-56138567D01*
X188432268Y-56101283D01*
X187761000Y-56772551D01*
X187761000Y-56749840D01*
X187735036Y-56652939D01*
X187684876Y-56566060D01*
X187613940Y-56495124D01*
X187527061Y-56444964D01*
X187430160Y-56419000D01*
X187407447Y-56419000D01*
X188078716Y-55747731D01*
X188078715Y-55747730D01*
X188041432Y-55720641D01*
X187884668Y-55640765D01*
X187833872Y-55592790D01*
X187817077Y-55524969D01*
X187839615Y-55458834D01*
X187884667Y-55419796D01*
X188041694Y-55339787D01*
X188202464Y-55222981D01*
X188342981Y-55082464D01*
X188459787Y-54921694D01*
X188550005Y-54744632D01*
X188611413Y-54555636D01*
X188642500Y-54359361D01*
X188642500Y-54160639D01*
X188611413Y-53964364D01*
X188550005Y-53775368D01*
X188518293Y-53713129D01*
X188518292Y-53713125D01*
X188491214Y-53659983D01*
X196499500Y-53659983D01*
X196499500Y-55260001D01*
X196499501Y-55260018D01*
X196510000Y-55362796D01*
X196510001Y-55362799D01*
X196565185Y-55529331D01*
X196565187Y-55529336D01*
X196569045Y-55535590D01*
X196657288Y-55678656D01*
X196781344Y-55802712D01*
X196823102Y-55828468D01*
X196829656Y-55832511D01*
X196876381Y-55884459D01*
X196887604Y-55953421D01*
X196859760Y-56017504D01*
X196858615Y-56018759D01*
X196858647Y-56018786D01*
X196855485Y-56022487D01*
X196855483Y-56022490D01*
X196798237Y-56101282D01*
X196716657Y-56213566D01*
X196609433Y-56424003D01*
X196536446Y-56648631D01*
X196499500Y-56881902D01*
X196499500Y-57118097D01*
X196536446Y-57351368D01*
X196609433Y-57575996D01*
X196706500Y-57766498D01*
X196716657Y-57786433D01*
X196855483Y-57977510D01*
X197022490Y-58144517D01*
X197213567Y-58283343D01*
X197312991Y-58334002D01*
X197424003Y-58390566D01*
X197424005Y-58390566D01*
X197424008Y-58390568D01*
X197544412Y-58429689D01*
X197648631Y-58463553D01*
X197881903Y-58500500D01*
X197881908Y-58500500D01*
X198118097Y-58500500D01*
X198351368Y-58463553D01*
X198575992Y-58390568D01*
X198786433Y-58283343D01*
X198977510Y-58144517D01*
X199144517Y-57977510D01*
X199283343Y-57786433D01*
X199390568Y-57575992D01*
X199463553Y-57351368D01*
X199473177Y-57290606D01*
X199500500Y-57118097D01*
X199500500Y-56881902D01*
X199463553Y-56648631D01*
X199413675Y-56495124D01*
X199390568Y-56424008D01*
X199390566Y-56424005D01*
X199390566Y-56424003D01*
X199283342Y-56213566D01*
X199144517Y-56022490D01*
X199144508Y-56022481D01*
X199141353Y-56018786D01*
X199143134Y-56017264D01*
X199114273Y-55964408D01*
X199119257Y-55894716D01*
X199161129Y-55838783D01*
X199170334Y-55832516D01*
X199218656Y-55802712D01*
X199342712Y-55678656D01*
X199434814Y-55529334D01*
X199489999Y-55362797D01*
X199500500Y-55260009D01*
X199500499Y-53659992D01*
X199489999Y-53557203D01*
X199434814Y-53390666D01*
X199342712Y-53241344D01*
X199218656Y-53117288D01*
X199069334Y-53025186D01*
X198902797Y-52970001D01*
X198902795Y-52970000D01*
X198800010Y-52959500D01*
X197199998Y-52959500D01*
X197199981Y-52959501D01*
X197097203Y-52970000D01*
X197097200Y-52970001D01*
X196930668Y-53025185D01*
X196930663Y-53025187D01*
X196781342Y-53117289D01*
X196657289Y-53241342D01*
X196565187Y-53390663D01*
X196565186Y-53390666D01*
X196510001Y-53557203D01*
X196510001Y-53557204D01*
X196510000Y-53557204D01*
X196499500Y-53659983D01*
X188491214Y-53659983D01*
X188459790Y-53598310D01*
X188391508Y-53504328D01*
X188342981Y-53437536D01*
X188202464Y-53297019D01*
X188041694Y-53180213D01*
X187885218Y-53100484D01*
X187834423Y-53052510D01*
X187817628Y-52984689D01*
X187840165Y-52918554D01*
X187885218Y-52879515D01*
X188041694Y-52799787D01*
X188202464Y-52682981D01*
X188342981Y-52542464D01*
X188446023Y-52400639D01*
X206171500Y-52400639D01*
X206171500Y-52599360D01*
X206202587Y-52795637D01*
X206263993Y-52984629D01*
X206263994Y-52984632D01*
X206317680Y-53089995D01*
X206354213Y-53161694D01*
X206471019Y-53322464D01*
X206611536Y-53462981D01*
X206772306Y-53579787D01*
X206850333Y-53619544D01*
X206949367Y-53670005D01*
X206949370Y-53670006D01*
X207043866Y-53700709D01*
X207138364Y-53731413D01*
X207334639Y-53762500D01*
X207334640Y-53762500D01*
X207533360Y-53762500D01*
X207533361Y-53762500D01*
X207729636Y-53731413D01*
X207918632Y-53670005D01*
X208095694Y-53579787D01*
X208256464Y-53462981D01*
X208396981Y-53322464D01*
X208487183Y-53198311D01*
X208542511Y-53155646D01*
X208612125Y-53149667D01*
X208673920Y-53182272D01*
X208708277Y-53243111D01*
X208711500Y-53271194D01*
X208711500Y-53309868D01*
X208711501Y-53309876D01*
X208717908Y-53369483D01*
X208768202Y-53504328D01*
X208768206Y-53504335D01*
X208854452Y-53619544D01*
X208854455Y-53619547D01*
X208969664Y-53705793D01*
X208969671Y-53705797D01*
X209104517Y-53756091D01*
X209104516Y-53756091D01*
X209111444Y-53756835D01*
X209164127Y-53762500D01*
X210783872Y-53762499D01*
X210843483Y-53756091D01*
X210978331Y-53705796D01*
X211093546Y-53619546D01*
X211179796Y-53504331D01*
X211230091Y-53369483D01*
X211236500Y-53309873D01*
X211236499Y-51690128D01*
X211230091Y-51630517D01*
X211195219Y-51537021D01*
X211179797Y-51495671D01*
X211179793Y-51495664D01*
X211093547Y-51380455D01*
X211093544Y-51380452D01*
X210978335Y-51294206D01*
X210978328Y-51294202D01*
X210843482Y-51243908D01*
X210843483Y-51243908D01*
X210783883Y-51237501D01*
X210783881Y-51237500D01*
X210783873Y-51237500D01*
X210783864Y-51237500D01*
X209164129Y-51237500D01*
X209164123Y-51237501D01*
X209104516Y-51243908D01*
X208969671Y-51294202D01*
X208969664Y-51294206D01*
X208854455Y-51380452D01*
X208854452Y-51380455D01*
X208768206Y-51495664D01*
X208768202Y-51495671D01*
X208717908Y-51630517D01*
X208712713Y-51678842D01*
X208711501Y-51690123D01*
X208711500Y-51690135D01*
X208711500Y-51728801D01*
X208691815Y-51795840D01*
X208639011Y-51841595D01*
X208569853Y-51851539D01*
X208506297Y-51822514D01*
X208487182Y-51801687D01*
X208476596Y-51787117D01*
X208396981Y-51677536D01*
X208256464Y-51537019D01*
X208095694Y-51420213D01*
X207918632Y-51329994D01*
X207918629Y-51329993D01*
X207729637Y-51268587D01*
X207631498Y-51253043D01*
X207533361Y-51237500D01*
X207334639Y-51237500D01*
X207269214Y-51247862D01*
X207138362Y-51268587D01*
X206949370Y-51329993D01*
X206949367Y-51329994D01*
X206772305Y-51420213D01*
X206611533Y-51537021D01*
X206471021Y-51677533D01*
X206354213Y-51838305D01*
X206263994Y-52015367D01*
X206263993Y-52015370D01*
X206202587Y-52204362D01*
X206171500Y-52400639D01*
X188446023Y-52400639D01*
X188459787Y-52381694D01*
X188550005Y-52204632D01*
X188611413Y-52015636D01*
X188642500Y-51819361D01*
X188642500Y-51620639D01*
X188611413Y-51424364D01*
X188580709Y-51329866D01*
X188550006Y-51235370D01*
X188550005Y-51235367D01*
X188504035Y-51145149D01*
X188459787Y-51058306D01*
X188342981Y-50897536D01*
X188202464Y-50757019D01*
X188041694Y-50640213D01*
X188028513Y-50633497D01*
X187864632Y-50549994D01*
X187864629Y-50549993D01*
X187675637Y-50488587D01*
X187577498Y-50473043D01*
X187479361Y-50457500D01*
X187280639Y-50457500D01*
X187215214Y-50467862D01*
X187084362Y-50488587D01*
X186895370Y-50549993D01*
X186895367Y-50549994D01*
X186718305Y-50640213D01*
X186557533Y-50757021D01*
X186417021Y-50897533D01*
X186300213Y-51058305D01*
X186209994Y-51235367D01*
X186209993Y-51235370D01*
X186148587Y-51424362D01*
X186148587Y-51424364D01*
X186117500Y-51620639D01*
X173642500Y-51620639D01*
X173611413Y-51424364D01*
X173580709Y-51329866D01*
X173550006Y-51235370D01*
X173550005Y-51235367D01*
X173504035Y-51145149D01*
X173459787Y-51058306D01*
X173342981Y-50897536D01*
X173202464Y-50757019D01*
X173041694Y-50640213D01*
X173028513Y-50633497D01*
X172864632Y-50549994D01*
X172864629Y-50549993D01*
X172675637Y-50488587D01*
X172577498Y-50473043D01*
X172479361Y-50457500D01*
X172280639Y-50457500D01*
X172215214Y-50467862D01*
X172084362Y-50488587D01*
X171895370Y-50549993D01*
X171895367Y-50549994D01*
X171718305Y-50640213D01*
X171557533Y-50757021D01*
X171417021Y-50897533D01*
X171300213Y-51058305D01*
X171209994Y-51235367D01*
X171209993Y-51235370D01*
X171148587Y-51424362D01*
X171148587Y-51424364D01*
X171117500Y-51620639D01*
X145000500Y-51620639D01*
X145000500Y-50321153D01*
X190199500Y-50321153D01*
X190199500Y-50478846D01*
X190230261Y-50633489D01*
X190230264Y-50633501D01*
X190290602Y-50779172D01*
X190290609Y-50779185D01*
X190378602Y-50910874D01*
X190384252Y-50928920D01*
X190394477Y-50944830D01*
X190398928Y-50975789D01*
X190399480Y-50977551D01*
X190399500Y-50979765D01*
X190399500Y-51020234D01*
X190379815Y-51087273D01*
X190378602Y-51089125D01*
X190290609Y-51220814D01*
X190290602Y-51220827D01*
X190230264Y-51366498D01*
X190230261Y-51366510D01*
X190199500Y-51521153D01*
X190199500Y-51678846D01*
X190230261Y-51833489D01*
X190230264Y-51833501D01*
X190290602Y-51979172D01*
X190290609Y-51979185D01*
X190378210Y-52110288D01*
X190378213Y-52110292D01*
X190489707Y-52221786D01*
X190489711Y-52221789D01*
X190620814Y-52309390D01*
X190620827Y-52309397D01*
X190766498Y-52369735D01*
X190766503Y-52369737D01*
X190921153Y-52400499D01*
X190921156Y-52400500D01*
X190921158Y-52400500D01*
X191078844Y-52400500D01*
X191078845Y-52400499D01*
X191233497Y-52369737D01*
X191379179Y-52309394D01*
X191388589Y-52303106D01*
X191404218Y-52292664D01*
X191404218Y-52292663D01*
X191510289Y-52221789D01*
X191621789Y-52110289D01*
X191709394Y-51979179D01*
X191769737Y-51833497D01*
X191800500Y-51678842D01*
X191800500Y-51521158D01*
X191800500Y-51521155D01*
X191800499Y-51521153D01*
X191781246Y-51424362D01*
X191769737Y-51366503D01*
X191739789Y-51294202D01*
X191709397Y-51220827D01*
X191709390Y-51220814D01*
X191621398Y-51089125D01*
X191615747Y-51071078D01*
X191605523Y-51055169D01*
X191601071Y-51024207D01*
X191600520Y-51022447D01*
X191600500Y-51020234D01*
X191600500Y-50979765D01*
X191620185Y-50912726D01*
X191621398Y-50910874D01*
X191709390Y-50779185D01*
X191709390Y-50779184D01*
X191709394Y-50779179D01*
X191769737Y-50633497D01*
X191800500Y-50478842D01*
X191800500Y-50321158D01*
X191800500Y-50321155D01*
X191800499Y-50321153D01*
X191769738Y-50166510D01*
X191769737Y-50166503D01*
X191769735Y-50166498D01*
X191709397Y-50020827D01*
X191709390Y-50020814D01*
X191621789Y-49889711D01*
X191621786Y-49889707D01*
X191510292Y-49778213D01*
X191510288Y-49778210D01*
X191379185Y-49690609D01*
X191379172Y-49690602D01*
X191233501Y-49630264D01*
X191233489Y-49630261D01*
X191078845Y-49599500D01*
X191078842Y-49599500D01*
X190921158Y-49599500D01*
X190921155Y-49599500D01*
X190766510Y-49630261D01*
X190766498Y-49630264D01*
X190620827Y-49690602D01*
X190620814Y-49690609D01*
X190489711Y-49778210D01*
X190489707Y-49778213D01*
X190378213Y-49889707D01*
X190378210Y-49889711D01*
X190290609Y-50020814D01*
X190290602Y-50020827D01*
X190230264Y-50166498D01*
X190230261Y-50166510D01*
X190199500Y-50321153D01*
X145000500Y-50321153D01*
X145000500Y-47102135D01*
X189649500Y-47102135D01*
X189649500Y-48897870D01*
X189649501Y-48897876D01*
X189655908Y-48957483D01*
X189706202Y-49092328D01*
X189706206Y-49092335D01*
X189792452Y-49207544D01*
X189792455Y-49207547D01*
X189907664Y-49293793D01*
X189907671Y-49293797D01*
X190042517Y-49344091D01*
X190042516Y-49344091D01*
X190049444Y-49344835D01*
X190102127Y-49350500D01*
X191897872Y-49350499D01*
X191957483Y-49344091D01*
X192092331Y-49293796D01*
X192207546Y-49207546D01*
X192293796Y-49092331D01*
X192342810Y-48960916D01*
X192384681Y-48904984D01*
X192450145Y-48880566D01*
X192518418Y-48895417D01*
X192546673Y-48916569D01*
X192660213Y-49030109D01*
X192832179Y-49155048D01*
X192832181Y-49155049D01*
X192832184Y-49155051D01*
X193021588Y-49251557D01*
X193223757Y-49317246D01*
X193433713Y-49350500D01*
X193433714Y-49350500D01*
X193646286Y-49350500D01*
X193646287Y-49350500D01*
X193856243Y-49317246D01*
X194058412Y-49251557D01*
X194247816Y-49155051D01*
X194334138Y-49092335D01*
X194419786Y-49030109D01*
X194419788Y-49030106D01*
X194419792Y-49030104D01*
X194570104Y-48879792D01*
X194570106Y-48879788D01*
X194570109Y-48879786D01*
X194695048Y-48707820D01*
X194695047Y-48707820D01*
X194695051Y-48707816D01*
X194699514Y-48699054D01*
X194747488Y-48648259D01*
X194815308Y-48631463D01*
X194881444Y-48653999D01*
X194920486Y-48699056D01*
X194924951Y-48707820D01*
X195049890Y-48879786D01*
X195200213Y-49030109D01*
X195372179Y-49155048D01*
X195372181Y-49155049D01*
X195372184Y-49155051D01*
X195561588Y-49251557D01*
X195763757Y-49317246D01*
X195973713Y-49350500D01*
X195973714Y-49350500D01*
X196186286Y-49350500D01*
X196186287Y-49350500D01*
X196396243Y-49317246D01*
X196598412Y-49251557D01*
X196787816Y-49155051D01*
X196874138Y-49092335D01*
X196959786Y-49030109D01*
X196959788Y-49030106D01*
X196959792Y-49030104D01*
X197110104Y-48879792D01*
X197110106Y-48879788D01*
X197110109Y-48879786D01*
X197235048Y-48707820D01*
X197235047Y-48707820D01*
X197235051Y-48707816D01*
X197239514Y-48699054D01*
X197287488Y-48648259D01*
X197355308Y-48631463D01*
X197421444Y-48653999D01*
X197460486Y-48699056D01*
X197464951Y-48707820D01*
X197589890Y-48879786D01*
X197740213Y-49030109D01*
X197912179Y-49155048D01*
X197912181Y-49155049D01*
X197912184Y-49155051D01*
X198101588Y-49251557D01*
X198303757Y-49317246D01*
X198513713Y-49350500D01*
X198513714Y-49350500D01*
X198726286Y-49350500D01*
X198726287Y-49350500D01*
X198936243Y-49317246D01*
X199138412Y-49251557D01*
X199327816Y-49155051D01*
X199414138Y-49092335D01*
X199499786Y-49030109D01*
X199499788Y-49030106D01*
X199499792Y-49030104D01*
X199650104Y-48879792D01*
X199650106Y-48879788D01*
X199650109Y-48879786D01*
X199775048Y-48707820D01*
X199775047Y-48707820D01*
X199775051Y-48707816D01*
X199871557Y-48518412D01*
X199937246Y-48316243D01*
X199970500Y-48106287D01*
X199970500Y-47893713D01*
X199937246Y-47683757D01*
X199871557Y-47481588D01*
X199775051Y-47292184D01*
X199775049Y-47292181D01*
X199775048Y-47292179D01*
X199687542Y-47171736D01*
X199650109Y-47120214D01*
X199650105Y-47120209D01*
X199632051Y-47102155D01*
X201610000Y-47102155D01*
X201610000Y-47750000D01*
X202526988Y-47750000D01*
X202494075Y-47807007D01*
X202460000Y-47934174D01*
X202460000Y-48065826D01*
X202494075Y-48192993D01*
X202526988Y-48250000D01*
X201610000Y-48250000D01*
X201610000Y-48897844D01*
X201616401Y-48957372D01*
X201616403Y-48957379D01*
X201666645Y-49092086D01*
X201666649Y-49092093D01*
X201752809Y-49207187D01*
X201752812Y-49207190D01*
X201867906Y-49293350D01*
X201867913Y-49293354D01*
X202002620Y-49343596D01*
X202002627Y-49343598D01*
X202062155Y-49349999D01*
X202062172Y-49350000D01*
X202710000Y-49350000D01*
X202710000Y-48433012D01*
X202767007Y-48465925D01*
X202894174Y-48500000D01*
X203025826Y-48500000D01*
X203152993Y-48465925D01*
X203210000Y-48433012D01*
X203210000Y-49350000D01*
X203857828Y-49350000D01*
X203857844Y-49349999D01*
X203917372Y-49343598D01*
X203917379Y-49343596D01*
X204052086Y-49293354D01*
X204052093Y-49293350D01*
X204167187Y-49207190D01*
X204167190Y-49207187D01*
X204253350Y-49092093D01*
X204253354Y-49092086D01*
X204275529Y-49032632D01*
X204314319Y-48859390D01*
X204314682Y-48858734D01*
X204314642Y-48857984D01*
X204347642Y-48798802D01*
X205017037Y-48129408D01*
X205034075Y-48192993D01*
X205099901Y-48307007D01*
X205192993Y-48400099D01*
X205307007Y-48465925D01*
X205370590Y-48482962D01*
X204738282Y-49115269D01*
X204738282Y-49115270D01*
X204792449Y-49154624D01*
X204981782Y-49251095D01*
X205183870Y-49316757D01*
X205393754Y-49350000D01*
X205606246Y-49350000D01*
X205816127Y-49316757D01*
X205816130Y-49316757D01*
X206018217Y-49251095D01*
X206207554Y-49154622D01*
X206261716Y-49115270D01*
X206261717Y-49115270D01*
X205629408Y-48482962D01*
X205692993Y-48465925D01*
X205807007Y-48400099D01*
X205900099Y-48307007D01*
X205965925Y-48192993D01*
X205982962Y-48129409D01*
X206615270Y-48761717D01*
X206615270Y-48761716D01*
X206654622Y-48707554D01*
X206659514Y-48697954D01*
X206707488Y-48647157D01*
X206775308Y-48630361D01*
X206841444Y-48652897D01*
X206880486Y-48697954D01*
X206885375Y-48707550D01*
X206924728Y-48761716D01*
X207557037Y-48129408D01*
X207574075Y-48192993D01*
X207639901Y-48307007D01*
X207732993Y-48400099D01*
X207847007Y-48465925D01*
X207910590Y-48482962D01*
X207278282Y-49115269D01*
X207278282Y-49115270D01*
X207332449Y-49154624D01*
X207521782Y-49251095D01*
X207723870Y-49316757D01*
X207933754Y-49350000D01*
X208146246Y-49350000D01*
X208356127Y-49316757D01*
X208356130Y-49316757D01*
X208558217Y-49251095D01*
X208747554Y-49154622D01*
X208801716Y-49115270D01*
X208801717Y-49115270D01*
X208169408Y-48482962D01*
X208232993Y-48465925D01*
X208347007Y-48400099D01*
X208440099Y-48307007D01*
X208505925Y-48192993D01*
X208522962Y-48129408D01*
X209155270Y-48761717D01*
X209155270Y-48761716D01*
X209194622Y-48707554D01*
X209199514Y-48697954D01*
X209247488Y-48647157D01*
X209315308Y-48630361D01*
X209381444Y-48652897D01*
X209420486Y-48697954D01*
X209425375Y-48707550D01*
X209464728Y-48761716D01*
X210097037Y-48129408D01*
X210114075Y-48192993D01*
X210179901Y-48307007D01*
X210272993Y-48400099D01*
X210387007Y-48465925D01*
X210450590Y-48482962D01*
X209818282Y-49115269D01*
X209818282Y-49115270D01*
X209872449Y-49154624D01*
X210061782Y-49251095D01*
X210263870Y-49316757D01*
X210473754Y-49350000D01*
X210686246Y-49350000D01*
X210896127Y-49316757D01*
X210896130Y-49316757D01*
X211098217Y-49251095D01*
X211287554Y-49154622D01*
X211341716Y-49115270D01*
X211341717Y-49115270D01*
X210709408Y-48482962D01*
X210772993Y-48465925D01*
X210887007Y-48400099D01*
X210980099Y-48307007D01*
X211045925Y-48192993D01*
X211062962Y-48129408D01*
X211695270Y-48761717D01*
X211695270Y-48761716D01*
X211734622Y-48707554D01*
X211831095Y-48518217D01*
X211896757Y-48316130D01*
X211896757Y-48316127D01*
X211930000Y-48106246D01*
X211930000Y-47893753D01*
X211896757Y-47683872D01*
X211896757Y-47683869D01*
X211831095Y-47481782D01*
X211734624Y-47292449D01*
X211695270Y-47238282D01*
X211695269Y-47238282D01*
X211062962Y-47870590D01*
X211045925Y-47807007D01*
X210980099Y-47692993D01*
X210887007Y-47599901D01*
X210772993Y-47534075D01*
X210709409Y-47517037D01*
X211341716Y-46884728D01*
X211287550Y-46845375D01*
X211098217Y-46748904D01*
X210896129Y-46683242D01*
X210686246Y-46650000D01*
X210473754Y-46650000D01*
X210263872Y-46683242D01*
X210263869Y-46683242D01*
X210061782Y-46748904D01*
X209872439Y-46845380D01*
X209818282Y-46884727D01*
X209818282Y-46884728D01*
X210450591Y-47517037D01*
X210387007Y-47534075D01*
X210272993Y-47599901D01*
X210179901Y-47692993D01*
X210114075Y-47807007D01*
X210097037Y-47870591D01*
X209464728Y-47238282D01*
X209464727Y-47238282D01*
X209425380Y-47292440D01*
X209420483Y-47302051D01*
X209372506Y-47352845D01*
X209304684Y-47369638D01*
X209238550Y-47347098D01*
X209199516Y-47302048D01*
X209194626Y-47292452D01*
X209155270Y-47238282D01*
X209155269Y-47238282D01*
X208522962Y-47870590D01*
X208505925Y-47807007D01*
X208440099Y-47692993D01*
X208347007Y-47599901D01*
X208232993Y-47534075D01*
X208169409Y-47517037D01*
X208801716Y-46884728D01*
X208747550Y-46845375D01*
X208558217Y-46748904D01*
X208356129Y-46683242D01*
X208146246Y-46650000D01*
X207933754Y-46650000D01*
X207723872Y-46683242D01*
X207723869Y-46683242D01*
X207521782Y-46748904D01*
X207332439Y-46845380D01*
X207278282Y-46884727D01*
X207278282Y-46884728D01*
X207910591Y-47517037D01*
X207847007Y-47534075D01*
X207732993Y-47599901D01*
X207639901Y-47692993D01*
X207574075Y-47807007D01*
X207557037Y-47870591D01*
X206924728Y-47238282D01*
X206924727Y-47238282D01*
X206885380Y-47292440D01*
X206880483Y-47302051D01*
X206832506Y-47352845D01*
X206764684Y-47369638D01*
X206698550Y-47347098D01*
X206659516Y-47302048D01*
X206654626Y-47292452D01*
X206615270Y-47238282D01*
X206615269Y-47238282D01*
X205982962Y-47870590D01*
X205965925Y-47807007D01*
X205900099Y-47692993D01*
X205807007Y-47599901D01*
X205692993Y-47534075D01*
X205629409Y-47517037D01*
X206261716Y-46884728D01*
X206207550Y-46845375D01*
X206018217Y-46748904D01*
X205816129Y-46683242D01*
X205606246Y-46650000D01*
X205393754Y-46650000D01*
X205183872Y-46683242D01*
X205183869Y-46683242D01*
X204981782Y-46748904D01*
X204792439Y-46845380D01*
X204738282Y-46884727D01*
X204738282Y-46884728D01*
X205370591Y-47517037D01*
X205307007Y-47534075D01*
X205192993Y-47599901D01*
X205099901Y-47692993D01*
X205034075Y-47807007D01*
X205017037Y-47870591D01*
X204347642Y-47201196D01*
X204314319Y-47140609D01*
X204275527Y-46967364D01*
X204253354Y-46907913D01*
X204253350Y-46907906D01*
X204167190Y-46792812D01*
X204167187Y-46792809D01*
X204052093Y-46706649D01*
X204052086Y-46706645D01*
X203917379Y-46656403D01*
X203917372Y-46656401D01*
X203857844Y-46650000D01*
X203210000Y-46650000D01*
X203210000Y-47566988D01*
X203152993Y-47534075D01*
X203025826Y-47500000D01*
X202894174Y-47500000D01*
X202767007Y-47534075D01*
X202710000Y-47566988D01*
X202710000Y-46650000D01*
X202062155Y-46650000D01*
X202002627Y-46656401D01*
X202002620Y-46656403D01*
X201867913Y-46706645D01*
X201867906Y-46706649D01*
X201752812Y-46792809D01*
X201752809Y-46792812D01*
X201666649Y-46907906D01*
X201666645Y-46907913D01*
X201616403Y-47042620D01*
X201616401Y-47042627D01*
X201610000Y-47102155D01*
X199632051Y-47102155D01*
X199499786Y-46969890D01*
X199327820Y-46844951D01*
X199138414Y-46748444D01*
X199138413Y-46748443D01*
X199138412Y-46748443D01*
X198936243Y-46682754D01*
X198936241Y-46682753D01*
X198936240Y-46682753D01*
X198774957Y-46657208D01*
X198726287Y-46649500D01*
X198513713Y-46649500D01*
X198465042Y-46657208D01*
X198303760Y-46682753D01*
X198101585Y-46748444D01*
X197912179Y-46844951D01*
X197740213Y-46969890D01*
X197589890Y-47120213D01*
X197464949Y-47292182D01*
X197460484Y-47300946D01*
X197412509Y-47351742D01*
X197344688Y-47368536D01*
X197278553Y-47345998D01*
X197239516Y-47300946D01*
X197235050Y-47292182D01*
X197110109Y-47120213D01*
X196959786Y-46969890D01*
X196787820Y-46844951D01*
X196598414Y-46748444D01*
X196598413Y-46748443D01*
X196598412Y-46748443D01*
X196396243Y-46682754D01*
X196396241Y-46682753D01*
X196396240Y-46682753D01*
X196234957Y-46657208D01*
X196186287Y-46649500D01*
X195973713Y-46649500D01*
X195925042Y-46657208D01*
X195763760Y-46682753D01*
X195561585Y-46748444D01*
X195372179Y-46844951D01*
X195200213Y-46969890D01*
X195049890Y-47120213D01*
X194924949Y-47292182D01*
X194920484Y-47300946D01*
X194872509Y-47351742D01*
X194804688Y-47368536D01*
X194738553Y-47345998D01*
X194699516Y-47300946D01*
X194695050Y-47292182D01*
X194570109Y-47120213D01*
X194419786Y-46969890D01*
X194247820Y-46844951D01*
X194058414Y-46748444D01*
X194058413Y-46748443D01*
X194058412Y-46748443D01*
X193856243Y-46682754D01*
X193856241Y-46682753D01*
X193856240Y-46682753D01*
X193694957Y-46657208D01*
X193646287Y-46649500D01*
X193433713Y-46649500D01*
X193385042Y-46657208D01*
X193223760Y-46682753D01*
X193021585Y-46748444D01*
X192832179Y-46844951D01*
X192660215Y-46969889D01*
X192546673Y-47083431D01*
X192485350Y-47116915D01*
X192415658Y-47111931D01*
X192359725Y-47070059D01*
X192342810Y-47039082D01*
X192293797Y-46907671D01*
X192293793Y-46907664D01*
X192207547Y-46792455D01*
X192207544Y-46792452D01*
X192092335Y-46706206D01*
X192092328Y-46706202D01*
X191957482Y-46655908D01*
X191957483Y-46655908D01*
X191897883Y-46649501D01*
X191897881Y-46649500D01*
X191897873Y-46649500D01*
X191897864Y-46649500D01*
X190102129Y-46649500D01*
X190102123Y-46649501D01*
X190042516Y-46655908D01*
X189907671Y-46706202D01*
X189907664Y-46706206D01*
X189792455Y-46792452D01*
X189792452Y-46792455D01*
X189706206Y-46907664D01*
X189706202Y-46907671D01*
X189655908Y-47042517D01*
X189649501Y-47102116D01*
X189649500Y-47102135D01*
X145000500Y-47102135D01*
X145000500Y-44124500D01*
X145020185Y-44057461D01*
X145072989Y-44011706D01*
X145124500Y-44000500D01*
X233375500Y-44000500D01*
X233442539Y-44020185D01*
G37*
%TD.AperFunction*%
%TD*%
M02*
